<svg width="606" height="380" viewBox="0 0 606 380" fill="none" xmlns="http://www.w3.org/2000/svg">
<g clip-path="url(#clip0)">
<path d="M563.485 248.834C560.452 256.746 559.039 265.185 559.331 273.652C559.624 282.118 561.615 290.441 565.187 298.125C565.62 299.048 566.084 299.98 566.559 300.913C572.212 311.968 580.092 323.461 575.828 334.824C572.514 343.681 562.984 348.339 554.18 351.814C520.061 365.292 484.226 373.955 447.71 377.551C420.779 380.203 393.656 380.073 366.59 379.938C308.057 379.651 249.463 379.365 191.113 374.728C164.438 372.644 137.669 369.585 112.007 362.026C76.7746 351.614 44.5324 332.976 17.9485 307.654C16.9986 306.753 16.0644 305.836 15.1354 304.904C9.54052 299.272 4.43624 293.035 1.85801 285.58C-3.25671 270.648 2.87573 254.242 10.7618 240.56C18.6479 226.879 28.5433 213.828 31.7634 198.36C36.518 175.587 25.9389 152.83 17.8076 131.031C9.67622 109.233 4.33186 83.0628 17.7815 64.0673C24.3419 54.8039 34.4826 48.7552 44.6859 43.7484C74.7982 28.9885 107.774 20.9644 141.312 20.2358C160.858 19.8294 181.098 21.7987 199.37 14.8591C209.656 10.9412 218.905 4.31407 229.604 1.69866C247.688 -2.70898 266.409 5.07994 282.63 14.2026C291.962 19.4543 301.053 25.1957 310.813 29.6867C317.906 32.9533 326.063 36.6107 333.61 38.6374C341.005 40.6224 348.625 36.642 355.118 33.3753C369.209 26.2793 382.456 15.7031 398.666 14.0359C419.193 11.9519 439.526 25.1696 459.73 20.9339C468.341 19.126 475.987 14.2703 484.369 11.5976C506.289 4.59541 530 13.1606 550.725 23.1898C563.569 29.4001 576.622 36.6524 584.649 48.4426C590.797 57.4923 593.406 68.4124 595.875 79.0616C605.269 119.59 613.844 164.422 593.923 200.975C584.831 217.61 570.364 231.182 563.485 248.834Z" fill="#1A54F8"/>
<path d="M602.164 179.577C600.259 186.858 597.482 193.884 593.892 200.501C584.821 217.136 570.364 230.718 563.485 248.375C562.467 250.995 561.633 253.683 560.99 256.419C560.719 257.545 560.484 258.677 560.286 259.816C557.981 272.638 559.693 285.856 565.187 297.672C565.62 298.594 566.084 299.527 566.559 300.459C572.212 311.515 580.092 323.008 575.828 334.371C575.4 335.518 574.858 336.619 574.21 337.658C570.035 344.431 561.826 348.344 554.18 351.361C520.061 364.839 484.226 373.501 447.71 377.098C440.669 377.791 433.618 378.296 426.562 378.661C406.615 379.703 386.594 379.588 366.605 379.489C308.073 379.203 249.478 378.916 191.129 374.279C164.454 372.195 137.685 369.137 112.023 361.577C76.7862 351.172 44.5385 332.54 17.9485 307.222C16.9986 306.32 16.0644 305.403 15.1354 304.471C9.5405 298.834 4.43623 292.597 1.85799 285.142C-1.67012 274.826 0.156565 263.812 4.22746 253.481C6.07261 248.873 8.25667 244.408 10.7618 240.122C11.4403 238.95 12.1344 237.773 12.8494 236.611C20.3127 224.18 28.8303 212.067 31.7739 197.937C35.4272 180.51 30.0672 163.088 23.7208 146.098C23.1624 144.603 22.5935 143.107 22.0246 141.623C20.6154 137.929 19.1854 134.251 17.8232 130.604C9.68664 108.81 4.3475 82.6405 17.7971 63.6449C18.1677 63.1239 18.5591 62.6029 18.961 62.0819C25.2239 54.0481 34.2634 48.536 43.4542 43.9356L44.7016 43.3104C74.8139 28.5506 107.789 20.5265 141.328 19.7978C160.874 19.3914 181.113 21.3608 199.385 14.4211C209.672 10.5032 218.92 3.87608 229.619 1.26067C247.704 -3.14696 266.425 4.64195 282.646 13.7646C291.977 19.0111 301.069 24.7577 310.829 29.2487C317.921 32.5153 326.079 36.1727 333.626 38.1994C341.021 40.1844 348.641 36.204 355.134 32.9373C369.225 25.8413 382.471 15.2651 398.682 13.5979C419.208 11.5139 439.542 24.7316 459.745 20.4959C468.357 18.688 476.003 13.8323 484.385 11.1596C506.305 4.15221 530.015 12.7226 550.74 22.7518C562.04 28.2119 573.501 34.4847 581.533 43.946C582.637 45.2423 583.67 46.5971 584.628 48.0046C584.737 48.1609 584.842 48.3224 584.946 48.4839C590.865 57.4346 593.432 68.1568 595.854 78.6236C600.593 99.0675 605.128 120.606 605.896 141.628C606.36 154.606 605.4 167.391 602.164 179.577Z" fill="url(#paint0_linear)"/>
<g opacity="0.1">
<path opacity="0.1" d="M575.828 334.387C575.4 335.534 574.858 336.635 574.21 337.674C545.222 352.466 514.242 362.995 482.234 368.934C464.322 372.268 445.664 375.551 426.552 378.661C406.604 379.703 386.584 379.588 366.595 379.489C308.062 379.203 249.468 378.916 191.118 374.279C164.443 372.195 137.675 369.137 112.012 361.578C76.7794 351.171 44.5355 332.538 17.9485 307.222C16.9986 306.321 16.0644 305.404 15.1354 304.471C9.5405 298.834 4.43623 292.597 1.85799 285.142C-1.67012 274.826 0.156565 263.812 4.22746 253.481L560.301 259.811C557.997 272.633 559.708 285.851 565.202 297.667C565.635 298.589 566.1 299.522 566.575 300.454C572.211 311.531 580.092 323.024 575.828 334.387Z" fill="black"/>
<path opacity="0.1" d="M581.522 43.941H43.4542L44.7016 43.3158C74.8139 28.5559 107.789 20.5318 141.328 19.8031C160.874 19.3968 181.113 21.3661 199.385 14.4264C209.672 10.5085 218.92 3.88145 229.619 1.26605C247.704 -3.14159 266.425 4.64732 282.646 13.77C291.977 19.0164 301.069 24.763 310.829 29.254C317.921 32.5207 326.079 36.1781 333.626 38.2048C341.021 40.1898 348.641 36.2094 355.134 32.9427C369.225 25.8467 382.471 15.2705 398.682 13.6033C419.208 11.5193 439.542 24.737 459.745 20.5013C468.357 18.6934 476.003 13.8377 484.385 11.165C506.305 4.15758 530.015 12.728 550.74 22.7572C562.013 28.2068 573.475 34.4796 581.522 43.941Z" fill="black"/>
<path opacity="0.1" d="M23.726 146.098C30.0724 163.088 35.4168 180.51 31.7791 197.937C28.8355 212.067 20.2971 224.18 12.8546 236.611L560.991 256.409C561.633 253.673 562.467 250.985 563.485 248.365C570.364 230.719 584.821 217.105 593.892 200.49C597.481 193.877 600.259 186.855 602.164 179.577L23.726 146.098ZM243.815 208.529H229.933C230.852 208.504 231.768 208.663 232.625 208.997C233.482 209.331 234.263 209.833 234.922 210.473C235.582 211.113 236.106 211.879 236.464 212.725C236.822 213.571 237.006 214.48 237.006 215.399C237.006 216.317 236.822 217.226 236.464 218.072C236.106 218.918 235.582 219.684 234.922 220.324C234.263 220.965 233.482 221.467 232.625 221.8C231.768 222.134 230.852 222.293 229.933 222.268H149.558C148.639 222.293 147.723 222.134 146.866 221.8C146.009 221.467 145.228 220.965 144.569 220.324C143.909 219.684 143.385 218.918 143.027 218.072C142.669 217.226 142.485 216.317 142.485 215.399C142.485 214.48 142.669 213.571 143.027 212.725C143.385 211.879 143.909 211.113 144.569 210.473C145.228 209.833 146.009 209.331 146.866 208.997C147.723 208.663 148.639 208.504 149.558 208.529H163.452C162.532 208.555 161.617 208.396 160.76 208.062C159.903 207.728 159.121 207.226 158.462 206.586C157.803 205.945 157.278 205.179 156.921 204.333C156.563 203.487 156.378 202.578 156.378 201.66C156.378 200.742 156.563 199.833 156.921 198.987C157.278 198.14 157.803 197.375 158.462 196.734C159.121 196.094 159.903 195.592 160.76 195.258C161.617 194.924 162.532 194.765 163.452 194.791H153.535C151.711 194.791 149.961 194.067 148.671 192.779C147.381 191.492 146.657 189.745 146.657 187.924C146.657 186.103 147.381 184.356 148.671 183.068C149.961 181.781 151.711 181.057 153.535 181.057H233.91C235.734 181.057 237.484 181.781 238.774 183.068C240.064 184.356 240.788 186.103 240.788 187.924C240.788 189.745 240.064 191.492 238.774 192.779C237.484 194.067 235.734 194.791 233.91 194.791H243.826C244.745 194.765 245.661 194.924 246.518 195.258C247.375 195.592 248.156 196.094 248.816 196.734C249.475 197.375 249.999 198.14 250.357 198.987C250.715 199.833 250.899 200.742 250.899 201.66C250.899 202.578 250.715 203.487 250.357 204.333C249.999 205.179 249.475 205.945 248.816 206.586C248.156 207.226 247.375 207.728 246.518 208.062C245.661 208.396 244.745 208.555 243.826 208.529H243.815Z" fill="black"/>
<path opacity="0.1" d="M595.844 78.6187C593.422 68.1519 590.854 57.4297 584.936 48.479L18.961 62.0875C18.5591 62.6085 18.1677 63.1295 17.7971 63.6505C4.34751 82.6408 9.68665 108.811 17.8232 130.604C19.1854 134.251 20.6154 137.924 22.0298 141.618H605.885C605.118 120.601 600.583 99.0627 595.844 78.6187ZM121.224 105.137H107.336C108.256 105.112 109.171 105.271 110.028 105.605C110.885 105.939 111.666 106.441 112.326 107.081C112.985 107.722 113.509 108.487 113.867 109.333C114.225 110.179 114.41 111.088 114.41 112.007C114.41 112.925 114.225 113.834 113.867 114.68C113.509 115.526 112.985 116.292 112.326 116.932C111.666 117.573 110.885 118.075 110.028 118.409C109.171 118.743 108.256 118.901 107.336 118.876H26.9619C26.0422 118.901 25.1269 118.743 24.2698 118.409C23.4128 118.075 22.6315 117.573 21.9721 116.932C21.3127 116.292 20.7885 115.526 20.4306 114.68C20.0727 113.834 19.8884 112.925 19.8884 112.007C19.8884 111.088 20.0727 110.179 20.4306 109.333C20.7885 108.487 21.3127 107.722 21.9721 107.081C22.6315 106.441 23.4128 105.939 24.2698 105.605C25.1269 105.271 26.0422 105.112 26.9619 105.137H40.8447C39.925 105.163 39.0097 105.004 38.1527 104.67C37.2956 104.336 36.5143 103.834 35.8549 103.194C35.1955 102.553 34.6714 101.788 34.3135 100.942C33.9556 100.096 33.7712 99.1865 33.7712 98.2681C33.7712 97.3498 33.9556 96.4407 34.3135 95.5947C34.6714 94.7487 35.1955 93.9829 35.8549 93.3425C36.5143 92.7021 37.2956 92.2002 38.1527 91.8663C39.0097 91.5325 39.925 91.3735 40.8447 91.3988H30.9284C29.104 91.3988 27.3544 90.6753 26.0644 89.3876C24.7743 88.0998 24.0496 86.3532 24.0496 84.532C24.0496 82.7109 24.7743 80.9643 26.0644 79.6765C27.3544 78.3888 29.104 77.6653 30.9284 77.6653H111.303C113.127 77.6653 114.877 78.3888 116.167 79.6765C117.457 80.9643 118.181 82.7109 118.181 84.532C118.181 86.3532 117.457 88.0998 116.167 89.3876C114.877 90.6753 113.127 91.3988 111.303 91.3988H121.219C122.138 91.3735 123.054 91.5325 123.911 91.8663C124.768 92.2002 125.549 92.7021 126.209 93.3425C126.868 93.9829 127.392 94.7487 127.75 95.5947C128.108 96.4407 128.292 97.3498 128.292 98.2681C128.292 99.1865 128.108 100.096 127.75 100.942C127.392 101.788 126.868 102.553 126.209 103.194C125.549 103.834 124.768 104.336 123.911 104.67C123.054 105.004 122.138 105.163 121.219 105.137H121.224Z" fill="black"/>
</g>
<path d="M575.828 334.835C572.514 343.692 562.984 348.35 554.18 351.825C520.061 365.303 484.226 373.965 447.71 377.562C420.779 380.214 393.656 380.084 366.59 379.948C308.057 379.662 249.463 379.375 191.113 374.738C164.438 372.654 137.669 369.596 112.007 362.036C76.7736 351.621 44.5313 332.98 17.9485 307.654C16.9986 306.753 16.0644 305.836 15.1354 304.904C23.1295 303.887 31.2056 303.675 39.2424 304.268C61.7941 305.805 83.7665 312.057 106.214 314.771C193.122 325.254 282.223 282.376 367.096 303.799C393.29 310.416 418.097 323.034 445.001 325.566C484.713 329.307 522.672 310.775 561.575 301.944C563.209 301.569 564.879 301.22 566.559 300.902C572.212 311.968 580.092 323.462 575.828 334.835Z" fill="#3F3D56"/>
<path d="M471.243 151.324H468.565V298.808H471.243V151.324Z" fill="#3F3D56"/>
<path d="M473.79 326.394C472.562 327.345 471.053 327.861 469.5 327.861C467.946 327.861 466.437 327.345 465.21 326.394C464.014 318.501 467.052 302.986 467.767 299.511C467.866 299.058 467.918 298.808 467.918 298.808H471.352C471.577 299.039 471.754 299.311 471.874 299.61C474.26 304.653 473.79 326.394 473.79 326.394Z" fill="#3F3D56"/>
<path opacity="0.1" d="M470.648 295.619V298.808H469.197V295.614C469.43 295.578 469.666 295.561 469.902 295.562C470.151 295.562 470.401 295.582 470.648 295.619Z" fill="black"/>
<path opacity="0.1" d="M471.885 299.61C471.273 299.929 470.591 300.088 469.902 300.074C469.151 300.09 468.411 299.895 467.767 299.511C467.866 299.058 467.918 298.808 467.918 298.808H471.352C471.58 299.038 471.761 299.311 471.885 299.61V299.61Z" fill="black"/>
<path d="M469.907 299.532C471.504 299.532 472.798 298.765 472.798 297.818C472.798 296.871 471.504 296.104 469.907 296.104C468.31 296.104 467.015 296.871 467.015 297.818C467.015 298.765 468.31 299.532 469.907 299.532Z" fill="#3F3D56"/>
<path d="M457.193 127.566L467.209 123.341L482.391 126.285L470.742 117.49L457.193 127.566Z" fill="#3F3D56"/>
<path d="M460.173 129.124L457.193 127.566L467.376 122.7L482.391 126.285L479.75 127.566L467.376 124.795L460.173 129.124Z" fill="#6C63FF"/>
<path d="M460.173 129.124L457.193 127.566L467.673 122.242L482.391 126.285L479.75 127.566L467.376 124.795L460.173 129.124Z" fill="#3F3D56"/>
<path d="M459.771 127.973L467.965 150.897H472.026L479.614 126.556L467.376 123.711L459.771 127.973Z" fill="#3F3D56"/>
<path d="M474.04 144.441L472.417 149.641L472.026 150.897H467.965L467.663 150.047L465.747 144.692L468.821 142.847L474.04 144.441Z" fill="#3F3D56"/>
<path opacity="0.2" d="M467.376 124.794L469.317 150.896H467.965L460.173 129.124L467.376 124.794Z" fill="#6C63FF"/>
<path opacity="0.1" d="M470.742 117.49L467.376 122.7L457.193 127.566L470.742 117.49Z" fill="black"/>
<path opacity="0.1" d="M472.417 149.641L472.026 150.897H467.965L467.663 150.048C468.003 149.709 468.412 149.446 468.862 149.277C469.312 149.108 469.792 149.037 470.272 149.068C471.028 149.049 471.772 149.248 472.417 149.641Z" fill="black"/>
<path opacity="0.1" d="M470.648 151.324V153.553C470.521 153.561 470.394 153.561 470.267 153.553C469.915 153.551 469.565 153.509 469.223 153.428V151.303L470.648 151.324Z" fill="black"/>
<path d="M470.267 153.038C471.864 153.038 473.158 152.27 473.158 151.323C473.158 150.377 471.864 149.609 470.267 149.609C468.67 149.609 467.376 150.377 467.376 151.323C467.376 152.27 468.67 153.038 470.267 153.038Z" fill="#3F3D56"/>
<path d="M340.4 301.11C340.4 301.11 305.61 299.646 301.956 231.677C298.303 163.708 334.539 152.194 334.539 152.194C334.539 152.194 346.021 145.79 351.11 145.525C356.198 145.259 373.218 146.864 373.218 146.864L354.46 143.248C354.46 143.248 380.859 133.219 388.76 132.416L360.227 138.418C360.227 138.418 359.826 122.637 366.657 117.417C366.657 117.417 360.833 116.985 357.727 128.358C356.846 131.638 355.206 134.666 352.94 137.2C350.674 139.733 347.845 141.701 344.68 142.946C334.09 147.067 319.456 153.574 316.126 159.144C316.126 159.144 309.962 165.568 310.907 148.849C311.852 132.13 316.267 117.813 317.874 117.412C317.874 117.412 330.473 104.038 348.145 103.235C348.145 103.235 337.832 99.0674 320.411 112.066C320.411 112.066 318.939 105.512 325.505 97.7545C332.07 89.9969 342.253 73.674 353.375 71.9391C353.375 71.9391 337.832 71.0013 325.505 91.0649C325.505 91.0649 320.948 94.0085 320.547 86.5166C320.145 79.0246 317.462 69.6623 317.462 69.6623C317.462 69.6623 313.71 86.9178 321.637 94.6702C321.637 94.6702 306.502 114.333 307.17 136.402C307.17 136.402 302.473 146.437 300.735 134.662C300.735 134.662 299.728 118.454 297.713 104.705C296.898 99.1632 297.237 93.5135 298.709 88.1088C300.181 82.7041 302.754 77.6606 306.267 73.2937C309.613 69.1257 311.946 65.0932 310.651 62.9727L293.099 83.8126C293.099 83.8126 278.361 49.7029 267.641 42.3464C256.921 34.9899 255.579 33.3853 255.579 33.3853L272.865 53.5791L251.159 45.9569L272.865 55.9913C272.865 55.9913 282.917 64.1502 288.679 86.4853C294.441 108.82 294.973 122.788 294.973 122.788C294.973 122.788 264.024 98.3015 258.126 99.1143L278.157 114.223C283.605 118.335 288.105 123.567 291.353 129.565C294.601 135.563 296.521 142.187 296.982 148.989C296.982 148.989 258.262 139.09 248.883 137.22L231.196 119.162L244.593 136.282L216.994 135.881L201.181 124.648C201.181 124.648 213.644 135.068 212.438 135.751C211.233 136.433 193.007 137.22 193.007 137.22C193.007 137.22 239.369 136.954 244.463 140.299C249.556 143.644 260.939 144.842 260.939 144.842L228.111 149.792L267.254 146.984C267.254 146.984 296.868 152.334 298.475 161.571C298.475 161.571 292.442 177.274 288.423 183.505C285.088 188.679 278.376 205.439 277.035 220.152C275.694 234.865 273.82 257.472 278.914 271.247C284.008 285.022 285.876 292.915 283.334 297.062C280.793 301.209 278.376 306.56 286.685 307.628C294.994 308.696 331.434 307.107 331.434 307.107C331.434 307.107 342.545 309.306 340.4 301.11Z" fill="#3F3D56"/>
<path opacity="0.1" d="M320.922 293.811C317.281 291.958 313.104 291.436 309.117 292.337C302.29 293.811 291.842 293.03 290.886 292.858" fill="black"/>
<path opacity="0.1" d="M299.091 213.713C299.091 213.713 297.431 239.862 300.385 245.014L299.091 213.713Z" fill="black"/>
<path opacity="0.1" d="M292.964 245.015C292.964 245.015 295.093 269.502 296.565 274.29C298.037 279.077 292.964 245.015 292.964 245.015Z" fill="black"/>
<path opacity="0.1" d="M290.886 184.787C289.383 185.339 282.927 198.411 284.216 202.277C285.506 206.143 290.886 184.787 290.886 184.787Z" fill="black"/>
<path opacity="0.1" d="M307.259 171.241C306.554 171.559 303.553 179.087 304.153 181.317C304.754 183.547 307.259 171.241 307.259 171.241Z" fill="black"/>
<path opacity="0.1" d="M279.305 215.146C280.046 222.737 280.453 227.707 279.979 233.782C279.581 238.504 279.649 243.255 280.182 247.964" fill="black"/>
<path opacity="0.1" d="M360.139 126.738C359.293 127.841 358.849 129.199 358.881 130.588C358.834 131.963 359.017 133.344 358.923 134.714C358.829 136.163 358.14 137.84 356.705 138.049" fill="black"/>
<path opacity="0.1" d="M335.395 81.4736C333.561 83.291 331.935 85.3057 330.546 87.4807C330.144 88.1703 329.683 88.824 329.169 89.4345C328.34 90.2259 327.452 90.9523 326.512 91.607C324.42 93.3064 322.934 95.6343 322.274 98.2445" fill="black"/>
<path opacity="0.1" d="M265.355 42.3882C265.795 43.2443 266.375 44.0209 267.072 44.6858C267.682 45.2641 268.371 45.7278 268.925 46.379C269.362 46.9308 269.758 47.5142 270.109 48.1244C271.583 50.3422 273.24 52.4334 275.062 54.3763" fill="black"/>
<path opacity="0.1" d="M297.781 81.1089C296.627 81.8279 296.325 83.37 296.351 84.7559C296.377 86.1417 296.607 87.5276 296.1 88.7884C295.871 89.3667 295.5 89.8721 295.26 90.44C294.912 91.4432 294.775 92.5074 294.858 93.5659C294.879 94.8024 294.917 96.0337 294.973 97.2598C295.036 98.7447 295.177 100.349 296.184 101.428" fill="black"/>
<path opacity="0.1" d="M296.836 154.377C296.072 153.756 295.261 153.195 294.409 152.699C293.631 152.224 292.792 151.856 291.915 151.605C290.579 151.251 289.175 151.303 287.802 151.162C286.429 151.022 284.989 150.641 284.049 149.625" fill="black"/>
<path opacity="0.1" d="M242.354 137.481C243.982 137.528 245.679 137.585 247.124 138.33C247.865 138.711 248.507 139.252 249.238 139.659C250.179 140.18 251.236 140.456 252.312 140.461" fill="black"/>
<path opacity="0.1" d="M264.958 144.197C264.763 144.092 264.537 144.062 264.322 144.112C264.107 144.162 263.917 144.288 263.789 144.468C263.497 144.801 263.335 145.233 263.037 145.562C262.442 146.203 261.472 146.275 260.595 146.307" fill="black"/>
<path opacity="0.1" d="M274.295 109.628L275.861 110.446C277.489 111.23 279.036 112.172 280.48 113.26" fill="black"/>
<path opacity="0.1" d="M292.181 124.919C293.225 124.674 294.101 125.774 294.268 126.811C294.435 127.847 294.237 128.947 294.535 129.937C294.862 130.822 295.399 131.616 296.1 132.25" fill="black"/>
<path opacity="0.1" d="M309.613 126.832C310.547 129.624 308.569 132.672 309.143 135.558C309.32 136.439 309.727 137.257 309.936 138.127C310.458 140.424 309.545 142.873 308.042 144.697" fill="black"/>
<path d="M153.144 324.629L153.948 326.337V313.646H153.144V324.629Z" fill="#3F3D56"/>
<path d="M101.329 324.629L100.525 326.337V313.646H101.329V324.629Z" fill="#3F3D56"/>
<path d="M106.793 290.326H104.57V305.93H106.793V290.326Z" fill="#3F3D56"/>
<path d="M151.51 290.326H149.287V305.93H151.51V290.326Z" fill="#3F3D56"/>
<g opacity="0.1">
<path opacity="0.1" d="M106.793 290.326H104.57V305.93H106.793V290.326Z" fill="black"/>
<path opacity="0.1" d="M151.51 290.326H149.287V305.93H151.51V290.326Z" fill="black"/>
</g>
<path opacity="0.1" d="M106.793 290.326H104.57V292.144H106.793V290.326Z" fill="black"/>
<path opacity="0.1" d="M151.51 290.326H149.287V292.144H151.51V290.326Z" fill="black"/>
<path d="M154.678 289.669H101.146V291.998H154.678V289.669Z" fill="#3F3D56"/>
<path opacity="0.1" d="M106.793 292.983H104.57V295.312H106.793V292.983Z" fill="black"/>
<path opacity="0.1" d="M151.51 292.983H149.287V295.312H151.51V292.983Z" fill="black"/>
<path d="M154.678 292.837H101.146V295.166H154.678V292.837Z" fill="#3F3D56"/>
<path opacity="0.1" d="M106.793 296.146H104.57V298.474H106.793V296.146Z" fill="black"/>
<path opacity="0.1" d="M151.51 296.146H149.287V298.474H151.51V296.146Z" fill="black"/>
<path d="M154.678 296H101.146V298.328H154.678V296Z" fill="#3F3D56"/>
<path opacity="0.1" d="M106.793 299.313H104.57V301.642H106.793V299.313Z" fill="black"/>
<path opacity="0.1" d="M151.51 299.313H149.287V301.642H151.51V299.313Z" fill="black"/>
<path d="M154.678 299.167H101.146V301.496H154.678V299.167Z" fill="#3F3D56"/>
<path opacity="0.1" d="M106.793 302.476H104.57V304.804H106.793V302.476Z" fill="black"/>
<path opacity="0.1" d="M151.51 302.476H149.287V304.804H151.51V302.476Z" fill="black"/>
<path d="M154.678 302.33H101.146V304.658H154.678V302.33Z" fill="#3F3D56"/>
<g opacity="0.1">
<path opacity="0.1" d="M105.682 291.305C105.86 291.305 106.005 291.161 106.005 290.982C106.005 290.804 105.86 290.659 105.682 290.659C105.503 290.659 105.358 290.804 105.358 290.982C105.358 291.161 105.503 291.305 105.682 291.305Z" fill="black"/>
<path opacity="0.1" d="M105.682 294.468C105.86 294.468 106.005 294.323 106.005 294.145C106.005 293.966 105.86 293.822 105.682 293.822C105.503 293.822 105.358 293.966 105.358 294.145C105.358 294.323 105.503 294.468 105.682 294.468Z" fill="black"/>
<path opacity="0.1" d="M105.682 297.635C105.86 297.635 106.005 297.491 106.005 297.312C106.005 297.134 105.86 296.989 105.682 296.989C105.503 296.989 105.358 297.134 105.358 297.312C105.358 297.491 105.503 297.635 105.682 297.635Z" fill="black"/>
<path opacity="0.1" d="M105.682 300.798C105.86 300.798 106.005 300.653 106.005 300.475C106.005 300.296 105.86 300.152 105.682 300.152C105.503 300.152 105.358 300.296 105.358 300.475C105.358 300.653 105.503 300.798 105.682 300.798Z" fill="black"/>
<path opacity="0.1" d="M105.682 303.965C105.86 303.965 106.005 303.821 106.005 303.642C106.005 303.464 105.86 303.319 105.682 303.319C105.503 303.319 105.358 303.464 105.358 303.642C105.358 303.821 105.503 303.965 105.682 303.965Z" fill="black"/>
<path opacity="0.1" d="M150.399 291.305C150.577 291.305 150.722 291.161 150.722 290.982C150.722 290.804 150.577 290.659 150.399 290.659C150.22 290.659 150.075 290.804 150.075 290.982C150.075 291.161 150.22 291.305 150.399 291.305Z" fill="black"/>
<path opacity="0.1" d="M150.399 294.468C150.577 294.468 150.722 294.323 150.722 294.145C150.722 293.966 150.577 293.822 150.399 293.822C150.22 293.822 150.075 293.966 150.075 294.145C150.075 294.323 150.22 294.468 150.399 294.468Z" fill="black"/>
<path opacity="0.1" d="M150.399 297.635C150.577 297.635 150.722 297.491 150.722 297.312C150.722 297.134 150.577 296.989 150.399 296.989C150.22 296.989 150.075 297.134 150.075 297.312C150.075 297.491 150.22 297.635 150.399 297.635Z" fill="black"/>
<path opacity="0.1" d="M150.399 300.798C150.577 300.798 150.722 300.653 150.722 300.475C150.722 300.296 150.577 300.152 150.399 300.152C150.22 300.152 150.075 300.296 150.075 300.475C150.075 300.653 150.22 300.798 150.399 300.798Z" fill="black"/>
<path opacity="0.1" d="M150.399 303.965C150.577 303.965 150.722 303.821 150.722 303.642C150.722 303.464 150.577 303.319 150.399 303.319C150.22 303.319 150.075 303.464 150.075 303.642C150.075 303.821 150.22 303.965 150.399 303.965Z" fill="black"/>
</g>
<path d="M105.682 291.16C105.86 291.16 106.005 291.015 106.005 290.837C106.005 290.658 105.86 290.514 105.682 290.514C105.503 290.514 105.358 290.658 105.358 290.837C105.358 291.015 105.503 291.16 105.682 291.16Z" fill="#3F3D56"/>
<path d="M105.682 294.322C105.86 294.322 106.005 294.177 106.005 293.999C106.005 293.82 105.86 293.676 105.682 293.676C105.503 293.676 105.358 293.82 105.358 293.999C105.358 294.177 105.503 294.322 105.682 294.322Z" fill="#3F3D56"/>
<path d="M105.682 297.49C105.86 297.49 106.005 297.345 106.005 297.167C106.005 296.988 105.86 296.844 105.682 296.844C105.503 296.844 105.358 296.988 105.358 297.167C105.358 297.345 105.503 297.49 105.682 297.49Z" fill="#3F3D56"/>
<path d="M105.682 300.652C105.86 300.652 106.005 300.507 106.005 300.329C106.005 300.15 105.86 300.006 105.682 300.006C105.503 300.006 105.358 300.15 105.358 300.329C105.358 300.507 105.503 300.652 105.682 300.652Z" fill="#3F3D56"/>
<path d="M105.682 303.82C105.86 303.82 106.005 303.675 106.005 303.497C106.005 303.318 105.86 303.174 105.682 303.174C105.503 303.174 105.358 303.318 105.358 303.497C105.358 303.675 105.503 303.82 105.682 303.82Z" fill="#3F3D56"/>
<path d="M105.682 291.16C105.86 291.16 106.005 291.015 106.005 290.837C106.005 290.658 105.86 290.514 105.682 290.514C105.503 290.514 105.358 290.658 105.358 290.837C105.358 291.015 105.503 291.16 105.682 291.16Z" fill="#3F3D56"/>
<path d="M105.682 294.322C105.86 294.322 106.005 294.177 106.005 293.999C106.005 293.82 105.86 293.676 105.682 293.676C105.503 293.676 105.358 293.82 105.358 293.999C105.358 294.177 105.503 294.322 105.682 294.322Z" fill="#3F3D56"/>
<path d="M105.682 297.49C105.86 297.49 106.005 297.345 106.005 297.167C106.005 296.988 105.86 296.844 105.682 296.844C105.503 296.844 105.358 296.988 105.358 297.167C105.358 297.345 105.503 297.49 105.682 297.49Z" fill="#3F3D56"/>
<path d="M105.682 300.652C105.86 300.652 106.005 300.507 106.005 300.329C106.005 300.15 105.86 300.006 105.682 300.006C105.503 300.006 105.358 300.15 105.358 300.329C105.358 300.507 105.503 300.652 105.682 300.652Z" fill="#3F3D56"/>
<path d="M105.682 303.82C105.86 303.82 106.005 303.675 106.005 303.497C106.005 303.318 105.86 303.174 105.682 303.174C105.503 303.174 105.358 303.318 105.358 303.497C105.358 303.675 105.503 303.82 105.682 303.82Z" fill="#3F3D56"/>
<path d="M150.399 291.16C150.578 291.16 150.722 291.015 150.722 290.837C150.722 290.658 150.578 290.514 150.399 290.514C150.22 290.514 150.075 290.658 150.075 290.837C150.075 291.015 150.22 291.16 150.399 291.16Z" fill="#3F3D56"/>
<path d="M150.399 294.322C150.578 294.322 150.722 294.177 150.722 293.999C150.722 293.82 150.578 293.676 150.399 293.676C150.22 293.676 150.075 293.82 150.075 293.999C150.075 294.177 150.22 294.322 150.399 294.322Z" fill="#3F3D56"/>
<path d="M150.399 297.49C150.578 297.49 150.722 297.345 150.722 297.167C150.722 296.988 150.578 296.844 150.399 296.844C150.22 296.844 150.075 296.988 150.075 297.167C150.075 297.345 150.22 297.49 150.399 297.49Z" fill="#3F3D56"/>
<path d="M150.399 300.652C150.578 300.652 150.722 300.507 150.722 300.329C150.722 300.15 150.578 300.006 150.399 300.006C150.22 300.006 150.075 300.15 150.075 300.329C150.075 300.507 150.22 300.652 150.399 300.652Z" fill="#3F3D56"/>
<path d="M150.399 303.82C150.578 303.82 150.722 303.675 150.722 303.497C150.722 303.318 150.578 303.174 150.399 303.174C150.22 303.174 150.075 303.318 150.075 303.497C150.075 303.675 150.22 303.82 150.399 303.82Z" fill="#3F3D56"/>
<g opacity="0.1">
<path opacity="0.1" d="M105.682 291.16C105.86 291.16 106.005 291.015 106.005 290.837C106.005 290.658 105.86 290.514 105.682 290.514C105.503 290.514 105.358 290.658 105.358 290.837C105.358 291.015 105.503 291.16 105.682 291.16Z" fill="black"/>
<path opacity="0.1" d="M105.682 294.322C105.86 294.322 106.005 294.178 106.005 293.999C106.005 293.821 105.86 293.676 105.682 293.676C105.503 293.676 105.358 293.821 105.358 293.999C105.358 294.178 105.503 294.322 105.682 294.322Z" fill="black"/>
<path opacity="0.1" d="M105.682 297.49C105.86 297.49 106.005 297.345 106.005 297.167C106.005 296.988 105.86 296.844 105.682 296.844C105.503 296.844 105.358 296.988 105.358 297.167C105.358 297.345 105.503 297.49 105.682 297.49Z" fill="black"/>
<path opacity="0.1" d="M105.682 300.652C105.86 300.652 106.005 300.508 106.005 300.329C106.005 300.151 105.86 300.006 105.682 300.006C105.503 300.006 105.358 300.151 105.358 300.329C105.358 300.508 105.503 300.652 105.682 300.652Z" fill="black"/>
<path opacity="0.1" d="M105.682 303.82C105.86 303.82 106.005 303.675 106.005 303.497C106.005 303.318 105.86 303.174 105.682 303.174C105.503 303.174 105.358 303.318 105.358 303.497C105.358 303.675 105.503 303.82 105.682 303.82Z" fill="black"/>
<path opacity="0.1" d="M105.682 291.16C105.86 291.16 106.005 291.015 106.005 290.837C106.005 290.658 105.86 290.514 105.682 290.514C105.503 290.514 105.358 290.658 105.358 290.837C105.358 291.015 105.503 291.16 105.682 291.16Z" fill="black"/>
<path opacity="0.1" d="M105.682 294.322C105.86 294.322 106.005 294.178 106.005 293.999C106.005 293.821 105.86 293.676 105.682 293.676C105.503 293.676 105.358 293.821 105.358 293.999C105.358 294.178 105.503 294.322 105.682 294.322Z" fill="black"/>
<path opacity="0.1" d="M105.682 297.49C105.86 297.49 106.005 297.345 106.005 297.167C106.005 296.988 105.86 296.844 105.682 296.844C105.503 296.844 105.358 296.988 105.358 297.167C105.358 297.345 105.503 297.49 105.682 297.49Z" fill="black"/>
<path opacity="0.1" d="M105.682 300.652C105.86 300.652 106.005 300.508 106.005 300.329C106.005 300.151 105.86 300.006 105.682 300.006C105.503 300.006 105.358 300.151 105.358 300.329C105.358 300.508 105.503 300.652 105.682 300.652Z" fill="black"/>
<path opacity="0.1" d="M105.682 303.82C105.86 303.82 106.005 303.675 106.005 303.497C106.005 303.318 105.86 303.174 105.682 303.174C105.503 303.174 105.358 303.318 105.358 303.497C105.358 303.675 105.503 303.82 105.682 303.82Z" fill="black"/>
<path opacity="0.1" d="M150.399 291.16C150.577 291.16 150.722 291.015 150.722 290.837C150.722 290.658 150.577 290.514 150.399 290.514C150.22 290.514 150.075 290.658 150.075 290.837C150.075 291.015 150.22 291.16 150.399 291.16Z" fill="black"/>
<path opacity="0.1" d="M150.399 294.322C150.577 294.322 150.722 294.178 150.722 293.999C150.722 293.821 150.577 293.676 150.399 293.676C150.22 293.676 150.075 293.821 150.075 293.999C150.075 294.178 150.22 294.322 150.399 294.322Z" fill="black"/>
<path opacity="0.1" d="M150.399 297.49C150.577 297.49 150.722 297.345 150.722 297.167C150.722 296.988 150.577 296.844 150.399 296.844C150.22 296.844 150.075 296.988 150.075 297.167C150.075 297.345 150.22 297.49 150.399 297.49Z" fill="black"/>
<path opacity="0.1" d="M150.399 300.652C150.577 300.652 150.722 300.508 150.722 300.329C150.722 300.151 150.577 300.006 150.399 300.006C150.22 300.006 150.075 300.151 150.075 300.329C150.075 300.508 150.22 300.652 150.399 300.652Z" fill="black"/>
<path opacity="0.1" d="M150.399 303.82C150.577 303.82 150.722 303.675 150.722 303.497C150.722 303.318 150.577 303.174 150.399 303.174C150.22 303.174 150.075 303.318 150.075 303.497C150.075 303.675 150.22 303.82 150.399 303.82Z" fill="black"/>
</g>
<path d="M155.915 306.841H99.8675L101.146 305.278H154.673L155.915 306.841Z" fill="#3F3D56"/>
<path d="M157.883 309.28L97.7537 309.134L99.7944 306.987H156.135L157.883 309.28Z" fill="#3F3D56"/>
<path d="M159.778 311.572H95.6035L97.5711 309.353L158.029 309.425L159.778 311.572Z" fill="#3F3D56"/>
<path d="M105.358 313.646V318.226L104.57 319.757L104.309 314.297L104.278 313.646H105.358Z" fill="#3F3D56"/>
<path d="M150.373 313.646L150.341 314.297L150.08 319.757L149.292 318.226V313.646H150.373Z" fill="#3F3D56"/>
<path d="M104.57 313.281H102.529V319.757H104.57V313.281Z" fill="#3F3D56"/>
<path d="M152.126 313.281H150.086V319.757H152.126V313.281Z" fill="#3F3D56"/>
<path opacity="0.1" d="M104.57 313.646H105.358V314.297H102.529V313.281H104.57V313.646Z" fill="black"/>
<path opacity="0.1" d="M104.57 313.281H102.529V319.757H104.57V313.281Z" fill="black"/>
<path opacity="0.1" d="M152.126 313.281H150.086V319.757H152.126V313.281Z" fill="black"/>
<path opacity="0.1" d="M152.126 313.281V314.297H149.292V313.646H150.08V313.281H152.126Z" fill="black"/>
<path d="M154.673 312.552H99.8675V314.151H154.673V312.552Z" fill="#3F3D56"/>
<path opacity="0.1" d="M154.673 312.552H99.8675V314.151H154.673V312.552Z" fill="black"/>
<path d="M100.525 312.26H98.1921V326.337H100.525V312.26Z" fill="#3F3D56"/>
<path d="M153.948 326.337H156.281V312.26H153.948V326.337Z" fill="#3F3D56"/>
<path opacity="0.1" d="M100.525 312.26H98.1921V326.337H100.525V312.26Z" fill="black"/>
<path opacity="0.1" d="M153.948 326.337H156.281V312.26H153.948V326.337Z" fill="black"/>
<path opacity="0.1" d="M154.673 312.552H99.8675V312.698H154.673V312.552Z" fill="black"/>
<path opacity="0.1" d="M99.2203 313.75C99.399 313.75 99.5439 313.605 99.5439 313.427C99.5439 313.249 99.399 313.104 99.2203 313.104C99.0416 313.104 98.8967 313.249 98.8967 313.427C98.8967 313.605 99.0416 313.75 99.2203 313.75Z" fill="black"/>
<path opacity="0.1" d="M155.305 313.703C155.483 313.703 155.628 313.559 155.628 313.38C155.628 313.202 155.483 313.057 155.305 313.057C155.126 313.057 154.981 313.202 154.981 313.38C154.981 313.559 155.126 313.703 155.305 313.703Z" fill="black"/>
<path d="M96.1306 310.978L95.6035 311.572V312.062H159.778V311.572L159.297 310.978H96.1306Z" fill="#3F3D56"/>
<path d="M159.772 311.572H95.6035V312.557H159.772V311.572Z" fill="#3F3D56"/>
<path d="M257.74 286.038C257.446 286.444 257.211 286.89 257.041 287.361C256.994 287.476 256.952 287.606 256.91 287.731C256.831 287.696 256.749 287.668 256.665 287.648C256.305 287.559 255.933 287.527 255.564 287.554C255.564 287.413 255.564 287.262 255.564 287.101C255.611 285.475 255.417 283.214 253.867 284.173C252.317 285.131 253.439 286.632 254.389 287.627L254.635 287.867C253.758 288.497 253.591 289.951 253.445 291.456C253.298 292.962 252.015 294.624 251.159 295.567L250.919 295.827C250.573 295.552 250.173 295.354 249.745 295.244C249.316 295.135 248.87 295.117 248.434 295.192C248.398 295.056 248.361 294.921 248.319 294.775C247.625 292.279 246.19 287.96 244.358 287.017C244.436 286.918 244.52 286.819 244.598 286.71C245.381 285.668 246.253 284.188 244.958 283.798C243.664 283.407 243.549 285.111 243.622 286.403C243.622 286.564 243.622 286.715 243.659 286.856C243.4 286.867 243.146 286.932 242.914 287.046C242.681 287.16 242.475 287.32 242.307 287.518L242.104 287.278C241.06 286.043 239.134 284.084 238.549 285.564C238.027 286.944 239.703 288.742 240.893 289.779L240.966 289.841C240.167 293.082 243.659 295.723 245.538 296.88L245.783 297.031C243.173 300.079 241.608 305.799 241.608 305.799L248.873 307.097C248.873 307.097 253.685 302.929 253.048 299.052H253.1C257.912 298.089 259.008 292.967 258.257 289.925L258.34 289.893C259.216 289.533 259.983 288.954 260.569 288.21C261.947 286.314 259.123 284.204 257.74 286.038Z" fill="#3F3D56"/>
<path opacity="0.1" d="M257.74 286.038C257.446 286.444 257.211 286.89 257.041 287.361C256.994 287.476 256.952 287.606 256.91 287.731C256.831 287.696 256.749 287.668 256.665 287.648C256.305 287.559 255.933 287.527 255.564 287.554C255.564 287.413 255.564 287.262 255.564 287.101C255.611 285.475 255.417 283.214 253.867 284.173C252.317 285.131 253.439 286.632 254.389 287.627L254.635 287.867C253.758 288.497 253.591 289.951 253.445 291.456C253.298 292.962 252.015 294.624 251.159 295.567L250.919 295.827C250.573 295.552 250.173 295.354 249.745 295.244C249.316 295.135 248.87 295.117 248.434 295.192C248.398 295.056 248.361 294.921 248.319 294.775C247.625 292.279 246.19 287.96 244.358 287.017C244.436 286.918 244.52 286.819 244.598 286.71C245.381 285.668 246.253 284.188 244.958 283.798C243.664 283.407 243.549 285.111 243.622 286.403C243.622 286.564 243.622 286.715 243.659 286.856C243.4 286.867 243.146 286.932 242.914 287.046C242.681 287.16 242.475 287.32 242.307 287.518L242.104 287.278C241.06 286.043 239.134 284.084 238.549 285.564C238.027 286.944 239.703 288.742 240.893 289.779L240.966 289.841C240.167 293.082 243.659 295.723 245.538 296.88L245.783 297.031C243.173 300.079 241.608 305.799 241.608 305.799L248.873 307.097C248.873 307.097 253.685 302.929 253.048 299.052H253.1C257.912 298.089 259.008 292.967 258.257 289.925L258.34 289.893C259.216 289.533 259.983 288.954 260.569 288.21C261.947 286.314 259.123 284.204 257.74 286.038Z" fill="black"/>
<path d="M243.283 288.127L242.458 290.607C242.458 290.607 241.984 290.274 241.415 289.753C240.225 288.711 238.528 286.919 239.071 285.538C239.656 284.058 241.582 286.017 242.631 287.252C243.006 287.747 243.283 288.127 243.283 288.127Z" fill="#3F3D56"/>
<path d="M245.068 286.71C244.81 287.05 244.533 287.375 244.238 287.684C244.238 287.684 244.134 287.096 244.087 286.377C244.019 285.111 244.149 283.423 245.428 283.772C246.707 284.121 245.856 285.694 245.068 286.71Z" fill="#3F3D56"/>
<path d="M256.028 287.101C256.002 287.919 255.924 288.57 255.924 288.57C255.555 288.279 255.207 287.964 254.88 287.627C253.92 286.632 252.855 285.095 254.358 284.173C255.861 283.251 256.075 285.475 256.028 287.101Z" fill="#3F3D56"/>
<path d="M261.044 288.174C260.459 288.918 259.692 289.498 258.815 289.857C258.572 289.961 258.322 290.051 258.069 290.128L257.072 288.721C257.177 288.259 257.315 287.804 257.484 287.361C257.654 286.89 257.89 286.444 258.184 286.038C259.567 284.204 262.39 286.314 261.044 288.174Z" fill="#3F3D56"/>
<path opacity="0.1" d="M242.584 287.252C243.006 287.773 243.283 288.127 243.283 288.127L242.458 290.607C242.458 290.607 241.984 290.274 241.415 289.753C241.549 288.959 241.877 288.211 242.37 287.575C242.406 287.455 242.5 287.351 242.584 287.252Z" fill="black"/>
<path opacity="0.1" d="M245.068 286.71C244.81 287.05 244.533 287.375 244.238 287.685C244.238 287.685 244.134 287.096 244.087 286.377C244.44 286.386 244.783 286.502 245.068 286.71Z" fill="black"/>
<path d="M249.243 296.562L247.156 297.49C247.156 297.49 246.691 297.266 246.028 296.854C243.81 295.494 239.348 292.061 242.338 287.997C245.329 283.933 247.829 291.206 248.81 294.77C249.092 295.833 249.243 296.562 249.243 296.562Z" fill="#3F3D56"/>
<path opacity="0.1" d="M254.864 287.627C255.172 287.313 255.588 287.127 256.028 287.106C256.002 287.924 255.924 288.576 255.924 288.576C255.55 288.283 255.196 287.967 254.864 287.627V287.627Z" fill="black"/>
<path opacity="0.1" d="M258.815 289.857C258.572 289.961 258.322 290.051 258.069 290.128L257.072 288.721C257.177 288.259 257.315 287.804 257.484 287.361C258.116 287.736 258.606 288.674 258.815 289.857Z" fill="black"/>
<path d="M253.575 299.016C253.46 299.016 253.34 299.063 253.22 299.079C246.138 300.152 250.882 296.338 250.882 296.338C250.882 296.338 251.206 296.047 251.634 295.567C252.49 294.624 253.773 292.962 253.92 291.457C254.144 289.164 254.4 287.018 257.108 287.648C259.817 288.279 260.276 297.677 253.575 299.016Z" fill="#3F3D56"/>
<path opacity="0.1" d="M248.794 294.775C249.092 295.817 249.254 296.562 249.254 296.562L247.166 297.49C247.166 297.49 246.702 297.266 246.039 296.854C246.842 295.807 247.777 295.015 248.794 294.775Z" fill="black"/>
<path opacity="0.1" d="M253.575 299.016C253.46 299.016 253.34 299.063 253.22 299.078C246.138 300.152 250.882 296.338 250.882 296.338C250.882 296.338 251.206 296.046 251.634 295.567C252.189 295.966 252.651 296.481 252.987 297.077C253.322 297.673 253.523 298.334 253.575 299.016V299.016Z" fill="black"/>
<path d="M242.062 305.773C242.062 305.773 246.028 291.607 251.587 295.973C257.145 300.339 249.327 307.07 249.327 307.07L242.062 305.773Z" fill="#3F3D56"/>
<path opacity="0.1" d="M244.066 290.68C244.311 290.68 244.51 290.482 244.51 290.237C244.51 289.993 244.311 289.794 244.066 289.794C243.821 289.794 243.622 289.993 243.622 290.237C243.622 290.482 243.821 290.68 244.066 290.68Z" fill="black"/>
<path opacity="0.1" d="M244.029 292.754C244.274 292.754 244.473 292.556 244.473 292.311C244.473 292.066 244.274 291.868 244.029 291.868C243.784 291.868 243.586 292.066 243.586 292.311C243.586 292.556 243.784 292.754 244.029 292.754Z" fill="black"/>
<path opacity="0.1" d="M256.926 291.092C257.171 291.092 257.369 290.893 257.369 290.649C257.369 290.404 257.171 290.206 256.926 290.206C256.681 290.206 256.482 290.404 256.482 290.649C256.482 290.893 256.681 291.092 256.926 291.092Z" fill="black"/>
<path opacity="0.1" d="M246.55 301.705C246.795 301.705 246.994 301.506 246.994 301.262C246.994 301.017 246.795 300.819 246.55 300.819C246.305 300.819 246.107 301.017 246.107 301.262C246.107 301.506 246.305 301.705 246.55 301.705Z" fill="black"/>
<path opacity="0.1" d="M255.997 294.53C256.242 294.53 256.44 294.332 256.44 294.087C256.44 293.843 256.242 293.645 255.997 293.645C255.752 293.645 255.553 293.843 255.553 294.087C255.553 294.332 255.752 294.53 255.997 294.53Z" fill="black"/>
<path opacity="0.1" d="M251.404 299.115C251.649 299.115 251.848 298.917 251.848 298.672C251.848 298.428 251.649 298.229 251.404 298.229C251.159 298.229 250.96 298.428 250.96 298.672C250.96 298.917 251.159 299.115 251.404 299.115Z" fill="black"/>
<path opacity="0.1" d="M245.585 291.571C245.83 291.571 246.028 291.373 246.028 291.128C246.028 290.884 245.83 290.686 245.585 290.686C245.34 290.686 245.141 290.884 245.141 291.128C245.141 291.373 245.34 291.571 245.585 291.571Z" fill="black"/>
<path opacity="0.1" d="M255.699 292.42C255.944 292.42 256.143 292.222 256.143 291.978C256.143 291.733 255.944 291.535 255.699 291.535C255.454 291.535 255.256 291.733 255.256 291.978C255.256 292.222 255.454 292.42 255.699 292.42Z" fill="black"/>
<path opacity="0.1" d="M254.181 295.864C254.426 295.864 254.624 295.666 254.624 295.421C254.624 295.177 254.426 294.979 254.181 294.979C253.936 294.979 253.737 295.177 253.737 295.421C253.737 295.666 253.936 295.864 254.181 295.864Z" fill="black"/>
<path opacity="0.1" d="M249.515 301.371C249.76 301.371 249.958 301.173 249.958 300.928C249.958 300.684 249.76 300.485 249.515 300.485C249.27 300.485 249.071 300.684 249.071 300.928C249.071 301.173 249.27 301.371 249.515 301.371Z" fill="black"/>
<path opacity="0.1" d="M248.549 299.193C248.794 299.193 248.993 298.995 248.993 298.75C248.993 298.506 248.794 298.308 248.549 298.308C248.304 298.308 248.106 298.506 248.106 298.75C248.106 298.995 248.304 299.193 248.549 299.193Z" fill="black"/>
<path opacity="0.1" d="M246.253 294.27C246.498 294.27 246.696 294.072 246.696 293.827C246.696 293.583 246.498 293.384 246.253 293.384C246.008 293.384 245.809 293.583 245.809 293.827C245.809 294.072 246.008 294.27 246.253 294.27Z" fill="black"/>
<path opacity="0.1" d="M250.104 303.372C250.349 303.372 250.548 303.174 250.548 302.929C250.548 302.685 250.349 302.486 250.104 302.486C249.859 302.486 249.661 302.685 249.661 302.929C249.661 303.174 249.859 303.372 250.104 303.372Z" fill="black"/>
<path opacity="0.1" d="M247.437 303.924C247.683 303.924 247.881 303.726 247.881 303.481C247.881 303.236 247.683 303.038 247.437 303.038C247.192 303.038 246.994 303.236 246.994 303.481C246.994 303.726 247.192 303.924 247.437 303.924Z" fill="black"/>
<path d="M180.79 315.11C180.79 315.11 189.036 298.578 192.715 297.859L180.79 315.11Z" fill="#3F3D56"/>
<path d="M182.867 318.621C182.867 318.621 191.113 302.09 194.792 301.371L182.867 318.621Z" fill="#3F3D56"/>
<path d="M184.667 322.268C184.667 322.268 192.908 305.732 196.588 305.018L184.667 322.268Z" fill="#3F3D56"/>
<path d="M216.389 311.911C216.389 311.911 224.635 295.38 228.309 294.661L216.389 311.911Z" fill="#3F3D56"/>
<path d="M218.451 315.396C218.451 315.396 226.697 298.865 230.371 298.146L218.451 315.396Z" fill="#3F3D56"/>
<path d="M220.262 319.043C220.262 319.043 228.508 302.512 232.187 301.793L220.262 319.043Z" fill="#3F3D56"/>
<path d="M323.668 295.281C323.668 295.281 331.909 278.749 335.588 278.036L323.668 295.281Z" fill="#3F3D56"/>
<path d="M325.745 298.797C325.745 298.797 333.986 282.261 337.665 281.547L325.745 298.797Z" fill="#3F3D56"/>
<path d="M327.53 302.439C327.53 302.439 335.771 285.908 339.45 285.194L327.53 302.439Z" fill="#3F3D56"/>
<path d="M190.852 318.33C190.852 318.33 185.158 300.762 187.282 297.677L190.852 318.33Z" fill="#3F3D56"/>
<path d="M223.216 316.381C223.216 316.381 217.522 298.813 219.646 295.734L223.216 316.381Z" fill="#3F3D56"/>
<path d="M327.53 304.961C327.53 304.961 321.841 287.393 323.97 284.298L327.53 304.961Z" fill="#3F3D56"/>
<path d="M465.685 330.005C465.685 330.005 458.461 317.236 447.569 313.552C443.002 312.038 439.05 309.086 436.306 305.138C435.017 303.254 433.904 301.255 432.982 299.167" stroke="#3F3D56" stroke-width="2" stroke-miterlimit="10"/>
<path d="M426.546 297.203C427.783 298.406 433.556 299.646 433.556 299.646C433.556 299.646 432.141 293.915 430.899 292.722C430.611 292.409 430.261 292.157 429.872 291.983C429.483 291.809 429.062 291.717 428.635 291.711C428.209 291.705 427.786 291.786 427.392 291.949C426.998 292.113 426.641 292.355 426.344 292.66C426.048 292.966 425.816 293.329 425.665 293.727C425.514 294.125 425.445 294.55 425.464 294.975C425.483 295.4 425.589 295.817 425.775 296.201C425.961 296.584 426.224 296.925 426.546 297.203V297.203Z" fill="#3F3D56"/>
<path d="M429.407 307.154C431.103 307.493 436.625 305.398 436.625 305.398C436.625 305.398 432.319 301.366 430.623 301.032C429.832 300.924 429.029 301.121 428.379 301.584C427.729 302.047 427.281 302.74 427.125 303.521C426.97 304.303 427.12 305.114 427.544 305.79C427.968 306.465 428.634 306.953 429.407 307.154V307.154Z" fill="#3F3D56"/>
<path d="M441.306 318.361C442.94 317.798 446.65 313.208 446.65 313.208C446.65 313.208 440.909 311.895 439.26 312.458C438.509 312.754 437.902 313.328 437.565 314.06C437.228 314.792 437.187 315.626 437.451 316.388C437.715 317.149 438.263 317.78 438.981 318.147C439.7 318.515 440.533 318.592 441.306 318.361V318.361Z" fill="#3F3D56"/>
<path d="M452.204 324.816C453.91 324.534 458.341 320.648 458.341 320.648C458.341 320.648 452.893 318.382 451.186 318.663C450.766 318.715 450.361 318.851 449.995 319.063C449.63 319.275 449.311 319.559 449.058 319.898C448.806 320.237 448.624 320.623 448.525 321.034C448.426 321.444 448.412 321.87 448.482 322.287C448.553 322.703 448.707 323.101 448.936 323.456C449.165 323.811 449.463 324.116 449.813 324.353C450.164 324.59 450.558 324.754 450.974 324.834C451.389 324.914 451.816 324.91 452.23 324.821L452.204 324.816Z" fill="#3F3D56"/>
<path d="M441.437 300.928C441.437 302.653 438.305 307.655 438.305 307.655C438.305 307.655 435.174 302.658 435.174 300.934C435.174 300.105 435.504 299.309 436.091 298.723C436.678 298.137 437.475 297.808 438.305 297.808C439.136 297.808 439.932 298.137 440.519 298.723C441.107 299.309 441.437 300.105 441.437 300.934V300.928Z" fill="#3F3D56"/>
<path d="M454.098 308.639C453.576 310.285 449.098 314.125 449.098 314.125C449.098 314.125 447.611 308.394 448.127 306.774C448.403 306.018 448.96 305.398 449.682 305.042C450.404 304.686 451.236 304.621 452.005 304.861C452.773 305.102 453.42 305.628 453.809 306.331C454.199 307.035 454.303 307.861 454.098 308.639V308.639Z" fill="#3F3D56"/>
<path d="M465.377 317.824C465.142 319.533 461.379 324.076 461.379 324.076C461.379 324.076 458.947 318.705 459.176 316.996C459.32 316.205 459.765 315.499 460.416 315.027C461.068 314.554 461.877 314.35 462.675 314.457C463.474 314.565 464.2 314.975 464.703 315.603C465.206 316.231 465.447 317.028 465.377 317.829V317.824Z" fill="#3F3D56"/>
<path d="M465.267 329.755C465.267 329.755 463.853 315.167 455.398 307.389C451.834 304.153 449.417 299.852 448.509 295.129C448.095 292.885 447.889 290.607 447.893 288.325" stroke="#3F3D56" stroke-width="2" stroke-miterlimit="10"/>
<path d="M442.595 284.204C443.242 285.804 448.018 289.279 448.018 289.279C448.018 289.279 449.062 283.47 448.399 281.87C448.065 281.137 447.46 280.561 446.711 280.262C445.962 279.963 445.126 279.964 444.378 280.265C443.63 280.566 443.027 281.143 442.694 281.877C442.362 282.611 442.327 283.445 442.595 284.204Z" fill="#3F3D56"/>
<path d="M441.379 294.197C442.794 295.187 448.686 295.51 448.686 295.51C448.686 295.51 446.39 290.081 444.98 289.091C444.301 288.662 443.483 288.51 442.694 288.667C441.906 288.824 441.208 289.277 440.746 289.933C440.283 290.589 440.09 291.398 440.208 292.192C440.326 292.985 440.746 293.703 441.379 294.197V294.197Z" fill="#3F3D56"/>
<path d="M447.7 309.238C449.422 309.384 454.677 306.69 454.677 306.69C454.677 306.69 449.944 303.163 448.227 303.017C447.805 302.959 447.376 302.986 446.965 303.099C446.555 303.211 446.171 303.406 445.839 303.671C445.506 303.937 445.231 304.267 445.031 304.642C444.831 305.017 444.709 305.429 444.673 305.852C444.638 306.276 444.689 306.702 444.824 307.105C444.959 307.508 445.175 307.88 445.459 308.196C445.743 308.513 446.088 308.769 446.474 308.948C446.861 309.127 447.279 309.226 447.705 309.238H447.7Z" fill="#3F3D56"/>
<path d="M455.053 319.554C456.723 319.986 462.36 318.22 462.36 318.22C462.36 318.22 458.294 313.943 456.619 313.531C456.213 313.402 455.785 313.357 455.362 313.399C454.938 313.44 454.527 313.568 454.154 313.773C453.782 313.979 453.455 314.258 453.194 314.594C452.933 314.93 452.743 315.316 452.637 315.727C452.53 316.139 452.509 316.567 452.574 316.988C452.639 317.408 452.789 317.81 453.015 318.17C453.242 318.53 453.539 318.841 453.889 319.082C454.24 319.324 454.636 319.491 455.053 319.575V319.554Z" fill="#3F3D56"/>
<path d="M454.902 293.363C454.203 294.926 449.317 298.245 449.317 298.245C449.317 298.245 448.488 292.41 449.187 290.831C449.337 290.433 449.567 290.069 449.863 289.763C450.159 289.456 450.515 289.214 450.908 289.049C451.302 288.885 451.724 288.802 452.151 288.807C452.577 288.811 452.998 288.903 453.388 289.075C453.778 289.248 454.128 289.498 454.417 289.811C454.707 290.124 454.929 290.492 455.071 290.894C455.213 291.295 455.271 291.721 455.242 292.146C455.213 292.571 455.097 292.985 454.902 293.363V293.363Z" fill="#3F3D56"/>
<path d="M463.352 305.534C462.209 306.831 456.567 308.524 456.567 308.524C456.567 308.524 457.522 302.71 458.654 301.412C459.215 300.842 459.974 300.507 460.774 300.478C461.574 300.448 462.356 300.726 462.957 301.254C463.559 301.781 463.935 302.519 464.008 303.315C464.081 304.111 463.847 304.905 463.352 305.534V305.534Z" fill="#3F3D56"/>
<path d="M469.933 318.491C469.03 319.96 463.743 322.586 463.743 322.586C463.743 322.586 463.696 316.688 464.604 315.219C464.809 314.849 465.087 314.524 465.421 314.264C465.755 314.004 466.139 313.815 466.548 313.707C466.958 313.599 467.385 313.576 467.804 313.638C468.223 313.7 468.625 313.846 468.986 314.067C469.347 314.289 469.659 314.581 469.903 314.927C470.148 315.272 470.319 315.663 470.408 316.077C470.496 316.49 470.5 316.918 470.418 317.333C470.337 317.747 470.171 318.142 469.933 318.491V318.491Z" fill="#3F3D56"/>
<path d="M145.023 210.212C145.023 210.212 154.793 209.629 153.64 216.464C153.7 216.811 153.648 217.168 153.492 217.485C153.337 217.801 153.085 218.06 152.773 218.225C152.773 218.225 152.773 217.704 151.771 217.886C151.427 217.945 151.076 217.962 150.728 217.938C150.249 217.911 149.792 217.728 149.428 217.417V217.417C149.428 217.417 146.683 216.287 145.613 211.806C145.613 211.806 144.825 210.827 144.856 210.577L146.505 211.28C146.189 211.962 146.144 212.739 146.38 213.453C146.38 213.453 146.437 211.322 146.751 211.369C146.818 211.369 147.612 211.78 147.612 211.78C147.612 211.78 146.641 213.864 147.372 215.349C147.372 215.349 147.095 212.801 147.894 211.931L149.052 212.604C149.052 212.604 147.92 214.745 148.687 216.485C148.687 216.485 148.489 213.812 149.298 212.77L150.341 213.588C150.341 213.588 149.298 215.672 149.929 217.141C149.929 217.141 150.013 214.015 150.571 213.791C150.964 214.13 151.314 214.515 151.615 214.938C151.615 214.938 150.884 216.464 151.338 217.272C151.338 217.272 151.615 215.188 151.86 215.188C152.336 215.892 152.679 216.678 152.873 217.506C152.826 216.635 152.553 215.791 152.079 215.057C152.608 215.157 153.096 215.409 153.483 215.782C153.483 215.782 153.342 214.813 151.855 214.74C151.579 214.335 151.257 213.965 150.895 213.635C151.697 213.566 152.505 213.66 153.269 213.911C153.269 213.911 152.481 212.994 150.623 213.39L149.579 212.541C149.579 212.541 151.526 212.275 152.356 212.572C152.356 212.572 151.401 211.759 149.303 212.348L148.17 211.676C149.04 211.484 149.932 211.407 150.822 211.447C150.822 211.447 149.778 210.884 147.836 211.494L147.027 211.129C147.027 211.129 148.248 210.895 148.593 210.853C148.937 210.811 148.969 210.717 148.969 210.717C148.198 210.591 147.407 210.679 146.683 210.973C146.683 210.973 144.992 210.316 145.023 210.212Z" fill="#3F3D56"/>
<path d="M192.324 189.794C192.324 189.794 202.094 189.206 200.941 196.046C201 196.393 200.948 196.749 200.793 197.065C200.637 197.38 200.386 197.638 200.074 197.802C200.074 197.802 200.074 197.281 199.072 197.469C198.727 197.523 198.377 197.538 198.028 197.516C197.552 197.487 197.097 197.304 196.734 196.995C196.734 196.995 193.983 195.859 192.919 191.378C192.919 191.378 192.125 190.399 192.157 190.149L193.806 190.852C193.49 191.535 193.447 192.312 193.686 193.025C193.686 193.025 193.738 190.894 194.057 190.941C194.119 190.941 194.912 191.352 194.912 191.352C194.912 191.352 193.947 193.436 194.678 194.926C194.678 194.926 194.401 192.379 195.2 191.503L196.363 192.181C196.363 192.181 195.231 194.317 195.998 196.057C195.998 196.057 195.8 193.384 196.603 192.342L197.647 193.16C197.647 193.16 196.603 195.27 197.23 196.713C197.23 196.713 197.318 193.587 197.877 193.363C198.27 193.702 198.62 194.087 198.921 194.509C198.921 194.509 198.19 196.036 198.644 196.844C198.644 196.844 198.921 194.76 199.166 194.76C199.642 195.464 199.985 196.25 200.179 197.078C200.132 196.207 199.859 195.363 199.385 194.629C199.914 194.729 200.402 194.98 200.789 195.353C200.789 195.353 200.648 194.384 199.161 194.311C198.885 193.907 198.562 193.537 198.201 193.207C199.003 193.141 199.81 193.235 200.575 193.483C200.575 193.483 199.787 192.566 197.929 192.962L196.885 192.113C196.885 192.113 198.832 191.847 199.657 192.144C199.657 192.144 198.707 191.331 196.603 191.925L195.476 191.248C196.344 191.056 197.234 190.979 198.122 191.019C198.122 191.019 197.078 190.456 195.142 191.066L194.333 190.706C194.333 190.706 195.549 190.467 195.899 190.43C196.249 190.394 196.275 190.295 196.275 190.295C195.504 190.165 194.713 190.252 193.989 190.545C193.413 190.343 192.856 190.092 192.324 189.794V189.794Z" fill="#3F3D56"/>
<path d="M224.045 114.494C224.045 114.494 233.821 113.905 232.667 120.746C232.727 121.093 232.675 121.449 232.519 121.764C232.364 122.08 232.112 122.338 231.801 122.502C231.801 122.502 231.801 121.981 230.799 122.168C230.454 122.222 230.104 122.238 229.755 122.215C229.277 122.186 228.821 122.004 228.456 121.694C228.456 121.694 225.71 120.559 224.646 116.078C224.646 116.078 223.852 115.104 223.884 114.848L225.533 115.552C225.217 116.236 225.174 117.015 225.413 117.73C225.413 117.73 225.465 115.599 225.783 115.646C225.846 115.646 226.639 116.057 226.639 116.057C226.639 116.057 225.669 118.141 226.405 119.631C226.405 119.631 226.123 117.084 226.926 116.208L228.09 116.886C228.09 116.886 226.958 119.022 227.725 120.762C227.725 120.762 227.527 118.089 228.33 117.047L229.374 117.87C229.374 117.87 228.33 119.954 228.957 121.418C228.957 121.418 229.045 118.292 229.604 118.073C229.997 118.41 230.347 118.793 230.648 119.214C230.648 119.214 229.917 120.741 230.371 121.548C230.371 121.548 230.648 119.464 230.893 119.464C231.371 120.168 231.715 120.954 231.905 121.783C231.862 120.912 231.59 120.067 231.117 119.334C231.646 119.434 232.134 119.685 232.521 120.058C232.521 120.058 232.38 119.089 230.893 119.016C230.614 118.613 230.292 118.241 229.933 117.907C230.735 117.841 231.542 117.934 232.307 118.183C232.307 118.183 231.519 117.266 229.661 117.662L228.617 116.818C228.617 116.818 230.564 116.547 231.389 116.844C231.389 116.844 230.439 116.031 228.336 116.625L227.203 115.948C228.073 115.759 228.964 115.682 229.854 115.718C229.854 115.718 228.811 115.156 226.874 115.765L226.065 115.406C226.065 115.406 227.281 115.166 227.631 115.13C227.981 115.093 228.007 114.994 228.007 114.994C227.236 114.865 226.445 114.951 225.721 115.244C225.142 115.043 224.581 114.792 224.045 114.494V114.494Z" fill="#3F3D56"/>
<path d="M252.495 92.3574C252.495 92.3574 262.265 91.7687 261.117 98.6094C261.175 98.9564 261.122 99.3128 260.966 99.6281C260.809 99.9433 260.557 100.201 260.245 100.365C260.245 100.365 260.245 99.8442 259.243 100.032C258.898 100.09 258.548 100.108 258.199 100.084C257.721 100.054 257.265 99.8717 256.9 99.5628C256.9 99.5628 254.154 98.4323 253.085 93.9517C253.085 93.9517 252.296 92.9722 252.328 92.7221L253.94 93.4046C253.624 94.0871 253.582 94.8642 253.82 95.5772C253.82 95.5772 253.873 93.4463 254.191 93.4932C254.254 93.4932 255.047 93.9048 255.047 93.9048C255.047 93.9048 254.076 95.9888 254.807 97.4736C254.807 97.4736 254.53 94.9259 255.329 94.0507L256.487 94.728C256.487 94.728 255.355 96.8641 256.122 98.6094C256.122 98.6094 255.929 95.9367 256.733 94.8947L257.776 95.7127C257.776 95.7127 256.733 97.7966 257.359 99.2659C257.359 99.2659 257.443 96.1399 258.001 95.9158C258.395 96.2512 258.746 96.6345 259.045 97.0568C259.045 97.0568 258.319 98.5886 258.768 99.3961C258.768 99.3961 259.05 97.3121 259.29 97.3121C259.769 98.0136 260.112 98.7981 260.303 99.6254C260.259 98.7543 259.988 97.9098 259.514 97.1767C260.044 97.2766 260.532 97.5303 260.918 97.906C260.918 97.906 260.772 96.9318 259.285 96.8641C259.009 96.4599 258.686 96.0893 258.325 95.7595C259.128 95.6904 259.937 95.7826 260.704 96.0305C260.704 96.0305 259.911 95.1135 258.053 95.5095L257.072 94.655C257.072 94.655 259.024 94.3893 259.848 94.655C259.848 94.655 258.899 93.8475 256.795 94.4362L255.663 93.7589C256.533 93.5696 257.424 93.4943 258.314 93.5349C258.314 93.5349 257.27 92.9722 255.334 93.5818L254.525 93.2171C254.525 93.2171 255.741 92.9774 256.091 92.9409C256.44 92.9045 256.467 92.8055 256.467 92.8055C255.696 92.6752 254.904 92.7637 254.181 93.0608C254.181 93.0608 252.469 92.4668 252.495 92.3574Z" fill="#3F3D56"/>
<path d="M313.793 54.4444C313.793 54.4444 317.264 63.5826 310.38 64.5204C310.066 64.6787 309.709 64.7342 309.362 64.679C309.014 64.6239 308.693 64.4608 308.443 64.2131C308.443 64.2131 308.924 64.0463 308.443 63.1711C308.283 62.8537 308.162 62.5177 308.083 62.1707C307.977 61.708 308.025 61.2233 308.219 60.7901V60.7901C308.219 60.7901 308.485 57.836 312.452 55.4864C312.452 55.4864 313.151 54.4444 313.402 54.3975L313.219 56.1793C312.474 56.079 311.718 56.2653 311.105 56.7003C311.105 56.7003 313.162 56.1168 313.193 56.4346C313.193 56.4971 313.057 57.3724 313.057 57.3724C313.057 57.3724 310.792 57.065 309.571 58.206C309.571 58.206 311.925 57.164 313.005 57.685L312.702 58.9927C312.702 58.9927 310.322 58.5498 308.882 59.8002C308.882 59.8002 311.382 58.8155 312.614 59.2792L312.144 60.5244C312.144 60.5244 309.816 60.1389 308.626 61.1861C308.626 61.1861 311.627 60.342 312.019 60.8057C311.815 61.2852 311.554 61.7383 311.241 62.1551C311.241 62.1551 309.56 61.9155 308.924 62.5823C308.924 62.5823 311.011 62.2333 311.069 62.4469C310.537 63.1103 309.888 63.6702 309.153 64.0984C309.966 63.7945 310.685 63.2845 311.241 62.6188C311.302 63.1561 311.204 63.6996 310.959 64.1818C310.959 64.1818 311.846 63.7598 311.481 62.3166C311.786 61.9328 312.045 61.515 312.253 61.0714C312.557 61.8154 312.708 62.6127 312.697 63.4159C312.697 63.4159 313.339 62.3739 312.389 60.7432L312.911 59.5032C312.911 59.5032 313.746 61.2798 313.71 62.1551C313.71 62.1551 314.2 61.0089 313.01 59.1802L313.323 57.9038C313.764 58.6742 314.101 59.4993 314.325 60.3577C314.325 60.3577 314.555 59.1958 313.396 57.5339L313.501 56.6534C313.501 56.6534 314.091 57.7423 314.237 58.0705C314.383 58.3987 314.477 58.3883 314.477 58.3883C314.367 57.6219 314.047 56.9007 313.553 56.3043C313.577 55.6784 313.658 55.0559 313.793 54.4444V54.4444Z" fill="#3F3D56"/>
<path d="M491.54 215.156C491.54 215.156 501.31 214.568 500.157 221.408C500.216 221.755 500.164 222.111 500.009 222.426C499.853 222.742 499.602 223 499.29 223.164C499.29 223.164 499.29 222.643 498.288 222.831C497.944 222.889 497.593 222.907 497.244 222.883C496.766 222.853 496.31 222.671 495.945 222.362C495.945 222.362 493.2 221.231 492.13 216.75C492.13 216.75 491.342 215.771 491.373 215.521L493.022 216.224C492.706 216.907 492.663 217.684 492.902 218.397C492.902 218.397 492.954 216.266 493.273 216.313C493.335 216.313 494.129 216.724 494.129 216.724C494.129 216.724 493.158 218.808 493.889 220.293C493.889 220.293 493.612 217.746 494.41 216.87L495.569 217.548C495.569 217.548 494.437 219.684 495.204 221.429C495.204 221.429 495.005 218.756 495.814 217.714L496.858 218.532C496.858 218.532 495.814 220.616 496.446 222.086C496.446 222.086 496.529 218.96 497.088 218.735C497.481 219.072 497.831 219.455 498.132 219.876C498.132 219.876 497.406 221.408 497.855 222.216C497.855 222.216 498.132 220.132 498.377 220.132C498.856 220.833 499.199 221.618 499.389 222.445C499.343 221.574 499.072 220.731 498.601 219.996C499.13 220.1 499.617 220.353 500.005 220.726C500.005 220.726 499.859 219.751 498.372 219.684C498.096 219.28 497.773 218.909 497.411 218.579C498.215 218.51 499.024 218.602 499.791 218.85C499.791 218.85 498.998 217.933 497.14 218.329L496.096 217.485C496.096 217.485 498.043 217.219 498.873 217.511C498.873 217.511 497.923 216.704 495.82 217.292L494.687 216.615C495.557 216.426 496.449 216.35 497.338 216.391C497.338 216.391 496.295 215.828 494.358 216.438L493.549 216.073C493.549 216.073 494.765 215.834 495.115 215.797C495.465 215.761 495.491 215.662 495.491 215.662C494.72 215.531 493.928 215.62 493.205 215.917C493.205 215.917 491.509 215.266 491.54 215.156Z" fill="#3F3D56"/>
<path d="M187.183 238.45C187.183 238.45 193.227 246.14 186.938 249.079C186.686 249.325 186.362 249.485 186.014 249.537C185.665 249.588 185.309 249.528 184.996 249.365C184.996 249.365 185.403 249.063 184.704 248.354C184.457 248.098 184.24 247.815 184.057 247.51C183.811 247.098 183.707 246.617 183.759 246.14V246.14C183.759 246.14 183.133 243.243 186.217 239.815C186.217 239.815 186.572 238.612 186.797 238.492L187.157 240.248C186.414 240.377 185.748 240.783 185.294 241.383C185.294 241.383 187.084 240.216 187.219 240.508C187.251 240.565 187.371 241.446 187.371 241.446C187.371 241.446 185.111 241.826 184.292 243.28C184.292 243.28 186.233 241.602 187.423 241.779L187.527 243.113C187.527 243.113 185.121 243.4 184.119 245.02C184.119 245.02 186.207 243.337 187.527 243.41L187.454 244.739C187.454 244.739 185.111 245.062 184.292 246.416C184.292 246.416 186.901 244.718 187.423 245.041C187.374 245.56 187.26 246.071 187.084 246.562C187.084 246.562 185.414 246.833 184.996 247.661C184.996 247.661 186.859 246.713 186.995 246.896C186.687 247.687 186.236 248.414 185.664 249.042C186.355 248.509 186.895 247.805 187.23 247C187.446 247.491 187.515 248.034 187.428 248.563C187.428 248.563 188.149 247.891 187.371 246.619C187.547 246.163 187.669 245.687 187.736 245.202C188.247 245.816 188.63 246.524 188.864 247.286C188.864 247.286 189.166 246.114 187.767 244.827L187.877 243.493C187.877 243.493 189.203 244.942 189.443 245.786C189.443 245.786 189.573 244.546 187.877 243.181L187.788 241.868C188.44 242.475 189.01 243.163 189.485 243.915C189.485 243.915 189.354 242.738 187.747 241.493L187.59 240.623C187.59 240.623 188.477 241.488 188.707 241.759C188.937 242.029 189.036 241.988 189.036 241.988C188.703 241.283 188.181 240.684 187.527 240.258C187.527 240.258 187.079 238.481 187.183 238.45Z" fill="#3F3D56"/>
<path d="M499.28 181.578C499.28 181.578 505.324 189.268 499.035 192.212C498.783 192.458 498.459 192.618 498.11 192.67C497.762 192.721 497.406 192.661 497.093 192.498C497.093 192.498 497.5 192.196 496.801 191.482C496.554 191.226 496.337 190.943 496.154 190.638C495.908 190.228 495.804 189.748 495.856 189.273V189.273C495.856 189.273 495.23 186.371 498.314 182.943C498.314 182.943 498.669 181.74 498.894 181.625L499.254 183.376C498.51 183.505 497.843 183.913 497.391 184.517C497.391 184.517 499.181 183.35 499.316 183.636C499.348 183.693 499.468 184.574 499.468 184.574C499.468 184.574 497.213 184.954 496.388 186.408C496.388 186.408 498.33 184.73 499.52 184.907L499.624 186.246C499.624 186.246 497.218 186.528 496.216 188.153C496.216 188.153 498.304 186.47 499.624 186.538L499.551 187.867C499.551 187.867 497.208 188.19 496.388 189.549C496.388 189.549 498.998 187.846 499.52 188.174C499.471 188.692 499.357 189.201 499.181 189.69C499.181 189.69 497.511 189.961 497.093 190.795C497.093 190.795 498.956 189.841 499.097 190.024C498.787 190.814 498.334 191.542 497.761 192.17C498.452 191.637 498.992 190.933 499.327 190.128C499.542 190.619 499.611 191.162 499.525 191.691C499.525 191.691 500.245 191.019 499.468 189.753C499.644 189.296 499.766 188.82 499.833 188.335C500.345 188.948 500.728 189.657 500.96 190.419C500.96 190.419 501.263 189.252 499.864 187.96L499.974 186.627C499.974 186.627 501.3 188.075 501.54 188.919C501.54 188.919 501.67 187.679 499.974 186.288L499.885 184.975C500.536 185.582 501.107 186.27 501.582 187.023C501.582 187.023 501.451 185.845 499.844 184.6L499.687 183.73C499.687 183.73 500.574 184.595 500.809 184.866C501.044 185.137 501.133 185.095 501.133 185.095C500.799 184.391 500.277 183.793 499.624 183.365C499.624 183.365 499.176 181.62 499.28 181.578Z" fill="#3F3D56"/>
<path d="M524.812 235.017C524.812 235.017 525.96 244.723 519.071 243.962C518.727 244.041 518.368 244.009 518.043 243.872C517.719 243.734 517.446 243.498 517.265 243.196C517.265 243.196 517.787 243.155 517.547 242.154C517.469 241.812 517.431 241.463 517.432 241.112C517.436 240.631 517.598 240.165 517.891 239.784V239.784C517.891 239.784 518.867 236.986 523.288 235.663C523.288 235.663 524.222 234.819 524.478 234.834L523.867 236.522C523.166 236.245 522.386 236.245 521.685 236.522C521.685 236.522 523.82 236.455 523.773 236.772C523.773 236.84 523.408 237.653 523.408 237.653C523.408 237.653 521.284 236.804 519.822 237.616C519.822 237.616 522.359 237.194 523.277 237.96L522.667 239.158C522.667 239.158 520.464 238.153 518.768 239.018C518.768 239.018 521.43 238.669 522.515 239.409L521.759 240.503C521.759 240.503 519.593 239.565 518.183 240.294C518.183 240.294 521.315 240.201 521.565 240.742C521.252 241.159 520.889 241.537 520.485 241.868C520.485 241.868 518.919 241.227 518.131 241.722C518.131 241.722 520.219 241.883 520.245 242.107C519.57 242.625 518.803 243.012 517.985 243.248C518.854 243.153 519.684 242.834 520.391 242.321C520.319 242.854 520.094 243.355 519.744 243.764C519.744 243.764 520.71 243.566 520.71 242.076C520.71 242.076 521.706 241.263 521.753 241.034C521.868 241.831 521.822 242.642 521.618 243.42C521.618 243.42 522.489 242.581 521.962 240.753L522.75 239.669C522.75 239.669 523.126 241.597 522.881 242.436C522.881 242.436 523.637 241.44 522.928 239.377L523.538 238.215C523.775 239.064 523.903 239.94 523.919 240.82C523.919 240.82 524.441 239.747 523.7 237.851L524.018 237.028C524.018 237.028 524.326 238.226 524.384 238.591C524.441 238.955 524.54 238.955 524.54 238.955C524.626 238.18 524.492 237.397 524.154 236.694C524.154 236.694 524.681 234.99 524.812 235.017Z" fill="#3F3D56"/>
<path d="M547.04 305.737C547.937 305.002 548.592 304.014 548.919 302.903C549.164 301.777 548.684 300.428 547.604 300.016C546.398 299.553 545.109 300.391 544.128 301.235C543.146 302.079 542.04 303.038 540.751 302.861C541.405 302.263 541.892 301.506 542.167 300.665C542.441 299.823 542.493 298.925 542.317 298.057C542.257 297.698 542.104 297.36 541.873 297.078C541.2 296.364 539.989 296.672 539.185 297.234C536.633 299.026 535.923 302.486 535.908 305.601C535.652 304.476 535.866 303.309 535.861 302.152C535.855 300.996 535.537 299.725 534.561 299.105C533.956 298.78 533.275 298.62 532.588 298.641C531.44 298.599 530.161 298.714 529.378 299.553C528.402 300.595 528.658 302.34 529.504 303.486C530.349 304.632 531.638 305.346 532.823 306.138C533.774 306.705 534.586 307.478 535.198 308.399C535.268 308.528 535.327 308.662 535.375 308.8H542.562C544.186 307.986 545.693 306.955 547.04 305.737Z" fill="#3F3D56"/>
<path d="M406.484 311.546C407.384 310.815 408.041 309.829 408.368 308.717C408.608 307.587 408.128 306.237 407.053 305.831C405.842 305.367 404.553 306.201 403.577 307.045C402.601 307.889 401.49 308.853 400.195 308.675C400.85 308.077 401.338 307.32 401.613 306.477C401.887 305.634 401.938 304.735 401.761 303.867C401.706 303.507 401.553 303.17 401.317 302.892C400.649 302.179 399.433 302.486 398.635 303.049C396.083 304.841 395.368 308.3 395.357 311.416C395.096 310.29 395.315 309.118 395.31 307.967C395.305 306.815 394.987 305.539 394.011 304.919C393.404 304.592 392.722 304.432 392.033 304.455C390.884 304.414 389.611 304.528 388.828 305.367C387.852 306.409 388.103 308.149 388.953 309.295C389.804 310.442 391.088 311.161 392.273 311.952C393.222 312.519 394.033 313.29 394.647 314.208C394.717 314.338 394.775 314.474 394.82 314.615H402.012C403.636 313.8 405.14 312.768 406.484 311.546V311.546Z" fill="#3F3D56"/>
<path d="M98.1921 275.962C98.1921 275.962 100.415 275.769 101.151 276.389C101.151 276.389 98.6358 277.04 98.3748 277.561C98.3748 277.561 98.427 277.613 98.6358 277.561C98.8445 277.509 100.17 277.228 100.452 277.561L100.546 277.723L100.645 277.785L100.791 277.884C100.881 277.943 100.95 278.029 100.99 278.129C101.037 278.275 101.151 278.129 101.151 278.129C101.151 278.129 101.318 278.473 101.266 278.567C101.214 278.661 101.428 278.895 101.428 278.895V279.937L101.511 279.859C101.534 280.516 101.696 281.16 101.986 281.75C101.986 281.75 102.983 284.277 103.328 284.47H103.536C103.536 284.47 105.04 286.46 106.48 286.882C107.921 287.304 107.999 287.747 107.999 287.747L106.198 289.737C105.857 289.764 105.518 289.818 105.186 289.898C105.81 289.965 106.437 289.988 107.065 289.966L108.453 288.137C108.629 288.178 108.793 288.262 108.928 288.382C109.015 288.409 109.097 288.447 109.173 288.497C109.288 288.58 109.371 288.497 109.465 288.533C109.559 288.57 108.729 289.966 108.729 289.966H107.806L108.573 290.242C108.834 290.341 109.371 290.013 109.371 290.013L110.107 288.679L110.405 288.94V288.757C110.405 288.757 110.713 288.94 110.843 288.909C110.974 288.877 110.681 288.695 110.681 288.695C110.826 288.72 110.975 288.72 111.12 288.695C111.203 288.648 111.042 288.382 111.042 288.382V288.19C111.042 288.19 110.556 288.19 110.619 288.091C110.681 287.992 110.859 287.945 111.167 288.091C111.475 288.236 113.364 289.054 114.084 288.757C114.552 289.119 115.056 289.432 115.587 289.69C115.942 289.773 116.355 290.388 116.355 290.388C116.355 290.388 117.873 291.951 118.771 291.566C118.6 291.295 118.464 291.005 118.364 290.701C118.312 290.425 117.2 289.529 117.2 289.529C117.2 289.529 119.554 290.081 119.554 289.919C119.554 289.919 120.728 290.586 120.796 290.586C120.864 290.586 120.796 290.18 120.159 289.706L121.047 289.836C121.03 289.629 120.953 289.432 120.823 289.269C120.694 289.107 120.519 288.987 120.321 288.924C120.107 288.627 119.828 288.381 119.507 288.205L115.827 286.168C115.827 286.168 116.188 285.986 115.78 285.465C115.893 285.427 116.008 285.395 116.125 285.371C116.334 285.319 114.476 283.756 114.424 283.761C114.184 283.593 113.984 283.374 113.839 283.12C113.771 282.922 112.091 281.943 112.091 281.943C112.091 281.943 110.64 281.844 109.643 279.859C108.646 277.874 106.277 277.655 106.277 277.655C106.277 277.655 105.426 273.451 101.407 275.05C101.365 275.081 98.6149 275.227 98.1921 275.962Z" fill="#3F3D56"/>
<path d="M357.326 250.954C357.054 251.392 356.235 251.131 355.974 251.574C355.893 251.82 355.893 252.084 355.974 252.33C355.986 252.584 355.937 252.837 355.832 253.068C355.726 253.3 355.568 253.503 355.369 253.662C355.17 253.82 354.936 253.93 354.686 253.981C354.437 254.032 354.179 254.023 353.933 253.955C353.894 254.635 353.602 255.276 353.114 255.753C352.807 255.946 352.448 256.039 352.086 256.019C351.725 256 351.378 255.868 351.094 255.643C350.533 255.18 350.118 254.565 349.899 253.872C349.591 253.054 349.377 252.127 348.662 251.6C348.406 251.408 348.109 251.288 347.858 251.079C347.328 250.604 346.963 249.973 346.814 249.277C346.595 248.416 346.314 247.571 345.974 246.75C345.626 245.924 344.995 245.248 344.194 244.843C343.438 244.494 342.561 244.515 341.773 244.239C341.188 244.011 340.637 243.706 340.134 243.332C339.496 242.846 338.807 242.432 338.078 242.097C337.648 241.917 337.242 241.686 336.867 241.41C336.586 241.267 336.35 241.05 336.184 240.783C336.018 240.516 335.93 240.208 335.927 239.894C335.809 239.304 335.581 238.742 335.254 238.237C334.899 237.58 334.581 236.945 334.81 236.273C335.04 235.601 335.75 235.194 335.99 234.538C336.101 234.084 336.131 233.615 336.079 233.152C336.058 232.918 336.094 232.682 336.185 232.465C336.276 232.248 336.419 232.056 336.601 231.907C337.211 231.5 337.952 232.011 338.688 232.214C338.946 232.298 339.22 232.316 339.487 232.266C339.722 232.182 339.952 232.084 340.176 231.974C341.319 231.516 342.608 232.344 343.244 233.386C343.881 234.428 344.132 235.668 344.68 236.762C344.867 237.187 345.16 237.556 345.53 237.836C345.714 237.976 345.932 238.064 346.162 238.09C346.392 238.117 346.624 238.081 346.835 237.987L347.462 239.388C347.78 240.107 348.109 240.821 348.432 241.54C348.845 242.457 349.325 243.447 350.249 243.853C350.661 244.03 351.12 244.067 351.543 244.213C351.998 244.375 352.404 244.652 352.721 245.017C353.037 245.382 353.253 245.823 353.349 246.297C353.375 246.614 353.431 246.928 353.516 247.234C353.871 248.188 355.081 248.401 355.984 248.902C356.499 249.195 356.93 249.614 357.237 250.121C357.33 250.237 357.388 250.377 357.404 250.525C357.419 250.672 357.392 250.821 357.326 250.954V250.954Z" fill="#3F3D56"/>
<path opacity="0.1" d="M357.326 250.954C357.054 251.392 356.235 251.131 355.974 251.574C355.893 251.82 355.893 252.084 355.974 252.33C355.986 252.584 355.937 252.837 355.832 253.068C355.726 253.3 355.568 253.503 355.369 253.662C355.17 253.82 354.936 253.93 354.686 253.981C354.437 254.032 354.179 254.023 353.933 253.955C353.894 254.635 353.602 255.276 353.114 255.753C352.807 255.946 352.448 256.039 352.086 256.019C351.725 256 351.378 255.868 351.094 255.643C350.533 255.18 350.118 254.565 349.899 253.872C349.591 253.054 349.377 252.127 348.662 251.6C348.406 251.408 348.109 251.288 347.858 251.079C347.328 250.604 346.963 249.973 346.814 249.277C346.595 248.416 346.314 247.571 345.974 246.75C345.626 245.924 344.995 245.248 344.194 244.843C343.438 244.494 342.561 244.515 341.773 244.239C341.188 244.011 340.637 243.706 340.134 243.332C339.496 242.846 338.807 242.432 338.078 242.097C337.648 241.917 337.242 241.686 336.867 241.41C336.586 241.267 336.35 241.05 336.184 240.783C336.018 240.516 335.93 240.208 335.927 239.894C335.809 239.304 335.581 238.742 335.254 238.237C334.899 237.58 334.581 236.945 334.81 236.273C335.04 235.601 335.75 235.194 335.99 234.538C336.101 234.084 336.131 233.615 336.079 233.152C336.058 232.918 336.094 232.682 336.185 232.465C336.276 232.248 336.419 232.056 336.601 231.907C337.211 231.5 337.952 232.011 338.688 232.214C338.946 232.298 339.22 232.316 339.487 232.266C339.722 232.182 339.952 232.084 340.176 231.974C341.319 231.516 342.608 232.344 343.244 233.386C343.881 234.428 344.132 235.668 344.68 236.762C344.867 237.187 345.16 237.556 345.53 237.836C345.714 237.976 345.932 238.064 346.162 238.09C346.392 238.117 346.624 238.081 346.835 237.987L347.462 239.388C347.78 240.107 348.109 240.821 348.432 241.54C348.845 242.457 349.325 243.447 350.249 243.853C350.661 244.03 351.12 244.067 351.543 244.213C351.998 244.375 352.404 244.652 352.721 245.017C353.037 245.382 353.253 245.823 353.349 246.297C353.375 246.614 353.431 246.928 353.516 247.234C353.871 248.188 355.081 248.401 355.984 248.902C356.499 249.195 356.93 249.614 357.237 250.121C357.33 250.237 357.388 250.377 357.404 250.525C357.419 250.672 357.392 250.821 357.326 250.954V250.954Z" fill="black"/>
<path d="M337.733 240.591C337.733 240.591 338.198 241.524 336.825 241.545C335.452 241.566 337.707 247.62 337.707 247.62L339.988 250.522L342.822 248.99L342.984 244.77L343.198 242.217C343.198 242.217 340.546 241.357 341.032 240.216C341.517 239.075 337.733 240.591 337.733 240.591Z" fill="#FBBEBE"/>
<path d="M345.964 265.287C345.964 265.287 347.634 266.933 349.591 264.766L348.088 263.177H346.193L345.964 265.287Z" fill="#3F3D56"/>
<path d="M348.959 263.458C349.257 264.266 349.648 265.037 350.123 265.756C350.614 266.277 351.381 269.976 350.358 269.559C349.335 269.142 347.378 266.032 347.263 265.5C347.172 264.823 347.118 264.141 347.101 263.458H348.959Z" fill="#3F3D56"/>
<path d="M334.341 272.503L343.359 272.852L342.31 269.048L337.77 268.955L334.341 272.503Z" fill="#3F3D56"/>
<path d="M337.289 278.791C337.076 279.187 337.159 280.562 337.253 281.573C337.316 282.219 337.383 282.714 337.383 282.714C337.383 282.714 334.012 283.756 333.5 282.855C333.353 282.506 333.28 282.129 333.286 281.75C333.269 280.612 333.341 279.475 333.5 278.348C333.5 278.348 333.36 275.264 333.292 274.962C333.292 274.842 333.219 274.441 333.177 274.04C333.119 273.425 333.057 272.737 333.057 272.737L337.66 270.299C337.66 270.299 337.66 270.752 337.66 271.455C337.629 273.664 337.556 278.301 337.289 278.791Z" fill="#3F3D56"/>
<path d="M337.498 300.261H337.446C337.039 300.261 334.732 300.261 334.732 300.261L334.638 300.152C334.434 299.897 334.299 299.594 334.246 299.272C334.193 298.95 334.224 298.619 334.335 298.313C334.627 297.26 334.783 296.174 334.8 295.082C334.889 294.813 334.898 294.523 334.826 294.249C334.744 294.002 334.728 293.738 334.779 293.483C334.758 293.303 334.71 293.128 334.638 292.962C334.572 292.702 334.572 292.43 334.638 292.17C334.621 291.674 334.542 291.183 334.403 290.706C334.195 290.107 332.66 282.933 333.031 282.073C333.031 282.073 336.287 281.516 337.519 281.938L337.357 287.507C337.357 287.507 336.773 289.174 337.263 289.617C337.754 290.06 337.263 291.43 337.263 291.43C337.263 291.43 337.19 291.686 337.608 292.54C338.025 293.394 337.608 293.796 337.608 293.796V295.442C337.426 296.106 337.443 296.809 337.655 297.463C338.083 298.365 337.66 300.235 337.498 300.261Z" fill="#3F3D56"/>
<path d="M343.886 278.791C343.672 279.187 343.756 280.562 343.85 281.573C343.913 282.219 343.98 282.714 343.98 282.714C343.98 282.714 340.609 283.756 340.097 282.855C339.95 282.506 339.877 282.129 339.883 281.75C339.866 280.612 339.938 279.475 340.097 278.348C340.097 278.348 339.956 275.264 339.889 274.962C339.852 274.8 339.784 273.248 339.732 271.836C339.69 270.648 339.654 269.569 339.654 269.569L344.257 270.283C344.257 270.283 344.257 272.305 344.2 274.378C344.142 276.452 344.059 278.473 343.886 278.791Z" fill="#3F3D56"/>
<path d="M344.095 300.261H344.043C343.636 300.261 341.329 300.261 341.329 300.261L341.235 300.152C341.031 299.897 340.896 299.594 340.843 299.272C340.79 298.95 340.821 298.619 340.932 298.313C341.224 297.26 341.38 296.174 341.397 295.082C341.478 294.81 341.478 294.521 341.397 294.249C341.315 294.002 341.298 293.738 341.35 293.483C341.328 293.303 341.281 293.128 341.209 292.962C341.143 292.702 341.143 292.43 341.209 292.17C341.192 291.674 341.113 291.183 340.974 290.706C340.765 290.107 339.231 282.933 339.602 282.073C339.602 282.073 342.858 281.516 344.09 281.938L343.928 287.507C343.928 287.507 343.344 289.174 343.834 289.617C344.325 290.06 343.834 291.43 343.834 291.43C343.834 291.43 343.761 291.686 344.179 292.54C344.596 293.394 344.179 293.796 344.179 293.796V295.442C343.997 296.106 344.013 296.809 344.226 297.463C344.68 298.365 344.257 300.235 344.095 300.261Z" fill="#3F3D56"/>
<path opacity="0.1" d="M339.429 241.649C341.239 241.649 342.707 240.184 342.707 238.377C342.707 236.57 341.239 235.105 339.429 235.105C337.619 235.105 336.152 236.57 336.152 238.377C336.152 240.184 337.619 241.649 339.429 241.649Z" fill="black"/>
<path d="M339.544 241.545C341.354 241.545 342.822 240.08 342.822 238.273C342.822 236.466 341.354 235.001 339.544 235.001C337.734 235.001 336.267 236.466 336.267 238.273C336.267 240.08 337.734 241.545 339.544 241.545Z" fill="#FBBEBE"/>
<path d="M343.401 252.595C343.286 253.501 343.264 254.416 343.333 255.325C345.452 257.071 345.055 260.733 345.055 260.733C345.055 260.733 346.684 268.147 346.318 268.835C345.953 269.523 347.107 273.639 347.107 273.639C346.137 273.823 345.155 273.936 344.168 273.977C343.82 273.989 343.471 273.978 343.124 273.946C342.889 273.954 342.654 273.912 342.436 273.822C342.218 273.732 342.022 273.597 341.861 273.425C341.209 272.289 338.396 270.591 338.396 270.591C338.396 270.591 336.621 271.659 334.962 272.628C334.44 272.94 333.918 273.243 333.469 273.493C333.11 273.683 332.712 273.792 332.305 273.81C330.332 273.956 327.702 272.722 328.13 272.289C328.652 271.768 331.178 262.39 331.178 262.39C331.178 262.39 332.457 256.586 333.573 255.779C333.769 255.631 333.914 255.427 333.991 255.195C334.372 254.153 333.735 252.434 333.735 252.434C333.735 252.434 330.134 248 330.296 247.745C330.418 247.214 330.472 246.669 330.458 246.125C330.458 246.125 330.901 243.963 331.152 242.921C331.402 241.879 333.239 241.618 333.761 241.712C334.283 241.806 335.619 241.712 336.131 241.295C336.642 240.878 337.503 241.457 337.503 241.457L339.502 242.457L341.407 241.337C341.407 241.337 343.318 241.436 343.495 241.691C343.672 241.946 346.167 242.431 346.167 242.431C347.446 243.29 347.399 247.375 347.399 247.375C347.399 247.375 344.33 250.043 343.704 251.413C343.553 251.793 343.451 252.19 343.401 252.595Z" fill="#3F3D56"/>
<path d="M346.731 246.786L347.425 247.344L348.145 253.82L348.871 260.332C348.871 260.332 349.147 260.983 349.393 260.916C349.638 260.848 349.601 264.766 349.601 264.766C349.601 264.766 346.929 263.125 345.974 265.287L345.228 260.04C345.228 260.04 344.273 254.679 344.299 254.262C344.325 253.846 343.808 249.318 343.808 249.318L346.731 246.786Z" fill="#3F3D56"/>
<path d="M330.828 247.088L330.306 247.714C330.306 247.714 330.353 250.407 329.957 251.058C329.56 251.71 331.047 255.513 331.606 255.284C332.164 255.054 333.422 249.11 333.422 249.032C333.422 248.954 330.828 247.088 330.828 247.088Z" fill="#3F3D56"/>
<path d="M330.781 250.917C330.781 250.917 329.153 252.564 329.268 253.356C329.383 254.148 330.943 256.622 333.177 255.294C333.177 255.294 335.244 251.407 330.781 250.917Z" fill="#3F3D56"/>
<path opacity="0.1" d="M337.446 300.266C337.039 300.266 334.732 300.266 334.732 300.266L334.638 300.157C335.228 299.954 336.501 299.652 337.446 300.266Z" fill="black"/>
<path opacity="0.1" d="M344.043 300.266C343.636 300.266 341.329 300.266 341.329 300.266L341.235 300.157C341.825 299.954 343.098 299.652 344.043 300.266Z" fill="black"/>
<path d="M337.102 236.21C337.207 236.199 337.314 236.21 337.415 236.241C337.564 236.313 337.697 236.414 337.806 236.538C337.989 236.688 338.206 236.79 338.439 236.835C338.672 236.88 338.912 236.865 339.137 236.793C339.302 236.718 339.479 236.669 339.659 236.647C339.792 236.657 339.921 236.702 340.032 236.775C340.144 236.849 340.235 236.95 340.296 237.069C340.431 237.299 340.504 237.559 340.625 237.793C340.676 237.916 340.754 238.026 340.852 238.116C340.95 238.206 341.067 238.273 341.193 238.314C341.316 238.32 341.436 238.348 341.548 238.398C341.621 238.454 341.675 238.53 341.705 238.617C341.924 239.086 342.096 239.659 342.561 239.872C342.725 239.948 342.902 239.988 343.083 239.992C343.273 240.005 343.463 239.969 343.636 239.888C343.807 239.792 343.95 239.651 344.048 239.481C344.311 238.981 344.4 238.407 344.299 237.851C344.219 237.148 343.972 236.475 343.578 235.887C343.164 235.293 342.599 234.821 341.942 234.517C341.284 234.213 340.558 234.089 339.836 234.157C339.585 234.189 339.335 234.238 339.09 234.303C338.183 234.5 337.37 235.002 336.788 235.725C336.659 235.909 336.515 236.083 336.361 236.246C336.611 236.236 336.856 236.215 337.102 236.21Z" fill="#3F3D56"/>
<path opacity="0.1" d="M337.102 236.21C337.207 236.199 337.314 236.21 337.415 236.241C337.564 236.313 337.697 236.414 337.806 236.538C337.989 236.688 338.206 236.79 338.439 236.835C338.672 236.88 338.912 236.865 339.137 236.793C339.302 236.718 339.479 236.669 339.659 236.647C339.792 236.657 339.921 236.702 340.032 236.775C340.144 236.849 340.235 236.95 340.296 237.069C340.431 237.299 340.504 237.559 340.625 237.793C340.676 237.916 340.754 238.026 340.852 238.116C340.95 238.206 341.067 238.273 341.193 238.314C341.316 238.32 341.436 238.348 341.548 238.398C341.621 238.454 341.675 238.53 341.705 238.617C341.924 239.086 342.096 239.659 342.561 239.872C342.725 239.948 342.902 239.988 343.083 239.992C343.273 240.005 343.463 239.969 343.636 239.888C343.807 239.792 343.95 239.651 344.048 239.481C344.311 238.981 344.4 238.407 344.299 237.851C344.219 237.148 343.972 236.475 343.578 235.887C343.164 235.293 342.599 234.821 341.942 234.517C341.284 234.213 340.558 234.089 339.836 234.157C339.585 234.189 339.335 234.238 339.09 234.303C338.183 234.5 337.37 235.002 336.788 235.725C336.659 235.909 336.515 236.083 336.361 236.246C336.611 236.236 336.856 236.215 337.102 236.21Z" fill="black"/>
<path opacity="0.1" d="M333.547 244.004C333.547 244.004 333.709 245.301 333.151 245.624C332.592 245.947 333.547 244.004 333.547 244.004Z" fill="black"/>
<path opacity="0.1" d="M336.454 242.483C336.454 242.483 334.487 242.608 334.476 242.889C334.466 243.171 336.454 242.483 336.454 242.483Z" fill="black"/>
<path opacity="0.2" d="M347.425 239.414L340.118 243.358L333.208 247.088L331.183 245.416L335.244 238.263L338.657 232.24C338.915 232.324 339.19 232.341 339.455 232.287C339.692 232.207 339.922 232.11 340.144 231.995C341.287 231.542 342.576 232.37 343.218 233.407C343.86 234.444 344.1 235.689 344.648 236.788C344.836 237.212 345.129 237.582 345.499 237.862C345.683 238.001 345.901 238.088 346.131 238.115C346.36 238.141 346.593 238.106 346.804 238.013L347.425 239.414Z" fill="white"/>
<path d="M332.801 245.338H331.439C331.133 245.338 330.886 245.585 330.886 245.89V249.73C330.886 250.035 331.133 250.282 331.439 250.282H332.801C333.107 250.282 333.354 250.035 333.354 249.73V245.89C333.354 245.585 333.107 245.338 332.801 245.338Z" fill="#3F3D56"/>
<path opacity="0.2" d="M332.801 245.338H331.439C331.133 245.338 330.886 245.585 330.886 245.89V249.73C330.886 250.035 331.133 250.282 331.439 250.282H332.801C333.107 250.282 333.354 250.035 333.354 249.73V245.89C333.354 245.585 333.107 245.338 332.801 245.338Z" fill="black"/>
<path d="M332.039 247.161C332.244 247.161 332.41 246.996 332.41 246.791C332.41 246.587 332.244 246.421 332.039 246.421C331.834 246.421 331.669 246.587 331.669 246.791C331.669 246.996 331.834 247.161 332.039 247.161Z" fill="#3F3D56"/>
<path d="M330.917 253.038C330.917 253.038 331.329 251.116 330.781 250.506C330.233 249.897 330.405 246.703 331.246 246.771C332.086 246.838 333.333 249.376 333.13 249.897C332.926 250.418 332.128 253.174 332.128 253.174L330.917 253.038Z" fill="#3F3D56"/>
<path d="M53.6419 67.1929C53.9647 67.1929 54.2264 66.9317 54.2264 66.6094C54.2264 66.2871 53.9647 66.0259 53.6419 66.0259C53.3191 66.0259 53.0574 66.2871 53.0574 66.6094C53.0574 66.9317 53.3191 67.1929 53.6419 67.1929Z" fill="white"/>
<path d="M116.094 54.21C116.416 54.21 116.678 53.9488 116.678 53.6265C116.678 53.3042 116.416 53.043 116.094 53.043C115.771 53.043 115.509 53.3042 115.509 53.6265C115.509 53.9488 115.771 54.21 116.094 54.21Z" fill="white"/>
<path d="M398.327 54.96C398.65 54.96 398.911 54.6988 398.911 54.3765C398.911 54.0542 398.65 53.793 398.327 53.793C398.004 53.793 397.742 54.0542 397.742 54.3765C397.742 54.6988 398.004 54.96 398.327 54.96Z" fill="white"/>
<path d="M53.6419 92.9302C53.9647 92.9302 54.2264 92.669 54.2264 92.3467C54.2264 92.0244 53.9647 91.7632 53.6419 91.7632C53.3191 91.7632 53.0574 92.0244 53.0574 92.3467C53.0574 92.669 53.3191 92.9302 53.6419 92.9302Z" fill="white"/>
<path d="M417.048 75.2632C417.371 75.2632 417.632 75.002 417.632 74.6797C417.632 74.3574 417.371 74.0962 417.048 74.0962C416.725 74.0962 416.463 74.3574 416.463 74.6797C416.463 75.002 416.725 75.2632 417.048 75.2632Z" fill="white"/>
<path d="M421.881 110.212C422.203 110.212 422.465 109.951 422.465 109.628C422.465 109.306 422.203 109.045 421.881 109.045C421.558 109.045 421.296 109.306 421.296 109.628C421.296 109.951 421.558 110.212 421.881 110.212Z" fill="white"/>
<path d="M538.293 69.5533C538.615 69.5533 538.877 69.292 538.877 68.9697C538.877 68.6475 538.615 68.3862 538.293 68.3862C537.97 68.3862 537.708 68.6475 537.708 68.9697C537.708 69.292 537.97 69.5533 538.293 69.5533Z" fill="white"/>
<path d="M186.807 42.9771C187.13 42.9771 187.392 42.7158 187.392 42.3936C187.392 42.0713 187.13 41.8101 186.807 41.8101C186.484 41.8101 186.223 42.0713 186.223 42.3936C186.223 42.7158 186.484 42.9771 186.807 42.9771Z" fill="white"/>
<path d="M464.129 48.9688C464.452 48.9688 464.714 48.7075 464.714 48.3853C464.714 48.063 464.452 47.8018 464.129 47.8018C463.806 47.8018 463.545 48.063 463.545 48.3853C463.545 48.7075 463.806 48.9688 464.129 48.9688Z" fill="white"/>
<path d="M408.431 146.682C408.754 146.682 409.016 146.42 409.016 146.098C409.016 145.776 408.754 145.515 408.431 145.515C408.108 145.515 407.846 145.776 407.846 146.098C407.846 146.42 408.108 146.682 408.431 146.682Z" fill="white"/>
<path d="M115.504 170.465C115.827 170.465 116.088 170.204 116.088 169.881C116.088 169.559 115.827 169.298 115.504 169.298C115.181 169.298 114.919 169.559 114.919 169.881C114.919 170.204 115.181 170.465 115.504 170.465Z" fill="white"/>
<path d="M416.463 152.585C416.786 152.585 417.048 152.323 417.048 152.001C417.048 151.679 416.786 151.417 416.463 151.417C416.14 151.417 415.879 151.679 415.879 152.001C415.879 152.323 416.14 152.585 416.463 152.585Z" fill="white"/>
<path d="M557.932 109.571C558.255 109.571 558.517 109.31 558.517 108.988C558.517 108.666 558.255 108.404 557.932 108.404C557.609 108.404 557.348 108.666 557.348 108.988C557.348 109.31 557.609 109.571 557.932 109.571Z" fill="white"/>
<path d="M165.628 87.2251C165.951 87.2251 166.213 86.9639 166.213 86.6416C166.213 86.3194 165.951 86.0581 165.628 86.0581C165.305 86.0581 165.044 86.3194 165.044 86.6416C165.044 86.9639 165.305 87.2251 165.628 87.2251Z" fill="white"/>
</g>
<defs>
<linearGradient id="paint0_linear" x1="303" y1="379.557" x2="303" y2="-0.000129987" gradientUnits="userSpaceOnUse">
<stop stop-opacity="0.2"/>
<stop offset="0.48" stop-color="white" stop-opacity="0"/>
<stop offset="1" stop-color="white" stop-opacity="0"/>
</linearGradient>
<clipPath id="clip0">
<rect width="606" height="380" fill="white"/>
</clipPath>
</defs>
</svg>
