<svg width="612" height="368" viewBox="0 0 612 368" fill="none" xmlns="http://www.w3.org/2000/svg">
<g clip-path="url(#clip0)">
<path d="M42.3078 345.306L78.402 293.461L42.2894 350.946L42.2684 356.844C39.6944 356.823 37.1464 356.739 34.6245 356.593C34.613 355.254 37.6808 281.56 37.5504 280.227C37.7285 280.176 37.8284 273.257 37.899 272.954L0.19104 216.299L37.9395 267.592L38.0521 269.108L40.2915 211.853L7.87744 153.221L40.5478 201.793C40.56 201.014 42.0942 83.4553 42.1093 82.73C42.1185 83.1153 42.8227 176.283 42.8278 176.676L73.828 139.174L42.7981 184.734L42.6396 235.977L71.4075 186.425C35.5055 258.689 43.4508 233.401 42.5338 272.005L84.3209 203.006L42.4981 281.945L42.3078 345.306Z" fill="#D0CDE1"/>
<path d="M594.492 352.345L609.533 330.74L594.484 354.695L594.476 357.154C593.403 357.145 592.341 357.11 591.29 357.049C591.285 356.491 592.564 325.781 592.51 325.225C592.584 325.204 592.625 322.321 592.655 322.194L576.941 298.585L592.672 319.96L592.719 320.592L593.652 296.732L580.144 272.299L593.759 292.54C593.764 292.215 594.403 243.226 594.409 242.923C594.413 243.084 594.707 281.909 594.709 282.073L607.627 266.445L594.696 285.431L594.63 306.785L606.619 286.135C591.657 316.25 594.968 305.712 594.586 321.799L612 293.045L594.571 325.941L594.492 352.345Z" fill="#D0CDE1"/>
<path d="M305 368C473.446 368 609.999 362.651 609.999 356.054C609.999 349.456 473.446 344.107 305 344.107C136.553 344.107 0 349.456 0 356.054C0 362.651 136.553 368 305 368Z" fill="#D0CDE1"/>
<path d="M452.947 141.097H104.701V348.659H452.947V141.097Z" fill="#3F3D56"/>
<path d="M190.887 141.097C190.531 162.938 181.602 183.765 166.027 199.086C150.452 214.407 129.477 222.994 107.626 222.997C106.647 222.997 105.674 222.98 104.701 222.945V141.097H190.887Z" fill="#1A54F8"/>
<path d="M295.859 348.659H262.738C263.984 345.271 266.24 342.346 269.202 340.28C272.163 338.215 275.688 337.107 279.299 337.107C282.91 337.107 286.434 338.215 289.396 340.28C292.357 342.346 294.613 345.271 295.859 348.659V348.659Z" fill="#1A54F8"/>
<path d="M452.947 241.297V311.211C443.969 310.772 435.504 306.898 429.305 300.39C423.105 293.882 419.648 285.24 419.648 276.254C419.648 267.267 423.105 258.625 429.305 252.118C435.504 245.61 443.969 241.736 452.947 241.297V241.297Z" fill="#1A54F8"/>
<path d="M388.971 216.52H169.281C163.614 216.52 159.021 221.112 159.021 226.777V226.777C159.021 232.442 163.614 237.034 169.281 237.034H388.971C394.638 237.034 399.232 232.442 399.232 226.777C399.232 221.112 394.638 216.52 388.971 216.52Z" fill="white"/>
<path d="M388.971 256.945H169.281C163.614 256.945 159.021 261.538 159.021 267.203V267.203C159.021 272.868 163.614 277.46 169.281 277.46H388.971C394.638 277.46 399.232 272.868 399.232 267.203C399.232 261.538 394.638 256.945 388.971 256.945Z" fill="white"/>
<path d="M388.971 297.372H325.273C319.607 297.372 315.013 301.964 315.013 307.629C315.013 313.294 319.607 317.886 325.273 317.886H388.971C394.638 317.886 399.232 313.294 399.232 307.629C399.232 301.964 394.638 297.372 388.971 297.372Z" fill="white"/>
<path d="M508.173 63.781C508.173 63.781 517.749 67.504 518.281 79.7366C518.813 91.9691 515.621 126.008 515.621 126.008C515.621 126.008 527.325 143.027 518.281 147.814C509.237 152.6 508.173 128.667 508.173 128.667L497.533 78.141C497.533 78.141 503.917 63.2492 508.173 63.781Z" fill="#A0616A"/>
<path d="M410.284 103.138C410.284 103.138 387.408 118.03 386.344 106.329C385.28 94.6286 393.26 48.8893 393.26 48.8893C393.26 48.8893 394.324 29.2108 405.496 33.9975C416.668 38.7842 402.304 55.2716 402.304 55.2716L403.9 92.5012L414.54 91.9693L410.284 103.138Z" fill="#A0616A"/>
<path d="M446.992 116.967C446.992 116.967 376.768 90.9059 380.492 121.221C384.216 151.537 402.304 189.83 402.304 189.83L408.688 199.935H421.988L413.476 145.155C413.476 145.155 443.8 162.174 452.844 159.515C452.844 159.515 464.548 237.697 468.804 243.547C473.06 249.398 480.508 320.134 480.508 320.134L487.424 328.644H500.725V208.977C500.725 208.977 523.601 134.518 506.045 130.795C488.488 127.072 446.992 116.967 446.992 116.967Z" fill="#2F2E41"/>
<path d="M407.092 193.021C407.092 193.021 403.9 187.171 398.58 193.021C393.26 198.871 380.492 205.786 380.492 205.786C380.492 205.786 352.828 212.168 375.172 217.486C397.516 222.805 400.176 217.486 400.176 217.486C400.176 217.486 403.9 218.55 407.092 219.614C410.284 220.677 431.032 216.954 431.032 213.763C431.032 210.572 423.989 191.501 421.126 194.389C418.264 197.276 407.092 193.021 407.092 193.021Z" fill="#2F2E41"/>
<path d="M488.444 323.379C488.444 323.379 480.6 316.921 478.754 318.766C476.908 320.611 467.219 333.066 467.219 333.066C467.219 333.066 441.379 352.901 464.912 356.13C488.444 359.359 487.06 350.595 487.06 350.595H494.442C495.365 350.595 507.824 345.06 507.362 342.753C506.901 340.447 501.364 321.639 499.518 322.97C497.672 324.302 488.444 323.379 488.444 323.379Z" fill="#2F2E41"/>
<path d="M417.2 43.5707C427.19 43.5707 435.288 35.4747 435.288 25.4877C435.288 15.5008 427.19 7.40479 417.2 7.40479C407.21 7.40479 399.112 15.5008 399.112 25.4877C399.112 35.4747 407.21 43.5707 417.2 43.5707Z" fill="#A0616A"/>
<path d="M429.968 23.3604C429.968 23.3604 443.8 35.0611 453.376 35.0611C462.952 35.0611 439.544 56.867 439.544 56.867L418.796 38.2522L429.968 23.3604Z" fill="#A0616A"/>
<path d="M435.288 56.8671L434.874 52.677C434.874 52.677 445.396 33.9974 448.588 32.4019C451.78 30.8063 453.908 30.8063 453.908 30.8063C453.908 30.8063 464.548 19.6374 476.252 25.4878C487.957 31.3382 515.621 68.5678 515.621 68.5678C515.621 68.5678 495.937 70.1634 498.597 85.5871C498.597 85.5871 518.281 136.113 512.961 136.645C507.641 137.177 491.681 133.454 475.189 140.9C458.696 148.346 451.248 143.559 451.248 143.559L442.736 115.903C442.736 115.903 426.776 106.861 427.308 98.8833L404.166 109.254L406.294 89.5759L420.392 73.3545C420.392 73.3545 417.732 71.2271 435.288 56.8671Z" fill="#1A54F8"/>
<path d="M400.561 27.4429C399.843 28.2416 398.942 28.8551 397.935 29.2312C396.905 29.5217 395.607 29.1655 395.196 28.1772L395.961 27.1821L393.668 25.7577L394.667 24.5858L392.82 22.5809L394.278 21.4247L391.503 19.4405C395.1 13.5728 398.99 7.63168 404.668 3.74198C410.347 -0.147723 418.282 -1.52987 424.1 2.14926C427.12 4.05941 429.256 7.09114 430.967 10.2282C434.407 16.537 437.44 22.6868 437.888 29.8584C435.727 27.7544 432.571 26.5687 430.41 24.4646C429.453 23.4494 428.369 22.562 427.184 21.8247C424.923 20.5503 422.219 20.4375 419.688 19.8627C417.56 19.3793 416.179 18.4204 414.569 17.0496C412.654 15.4189 412.576 16.0494 410.642 17.8854C407.284 21.0735 403.924 24.2593 400.561 27.4429Z" fill="#2F2E41"/>
</g>
<defs>
<clipPath id="clip0">
<rect width="612" height="368" fill="white"/>
</clipPath>
</defs>
</svg>
